<svg width="316" height="609" viewBox="0 0 316 609" fill="none" xmlns="http://www.w3.org/2000/svg">
<path d="M567.945 304.508V304.508ZM567.945 304.508L568.273 307.037L569.252 309.585L570.87 312.173L573.104 314.819L575.923 317.542L579.282 320.356L583.127 323.275L587.387 326.308L591.976 329.461L596.794 332.735L601.722 336.124L606.626 339.616L611.358 343.192L615.756 346.825L619.655 350.482L622.883 354.119L625.28 357.69L626.694 361.142L627 364.422L626.101 367.477L623.939 370.257L620.496 372.719L615.802 374.829L609.927 376.567L602.983 377.922L595.117 378.9L586.5 379.517L577.318 379.803L567.767 379.795L558.039 379.541L548.316 379.092L538.765 378.502L529.536 377.827L520.756 377.121L512.534 376.437L504.956 375.825L498.095 375.335L492.009 375.013L486.745 374.904L482.347 375.055L478.856 375.512L476.315 376.328L474.778 377.561L474.309 379.277L474.994 381.557L476.942 384.499L480.301 388.227L485.264 392.895L492.089 398.705L501.118 405.919L512.809 414.883L527.781 426.062L521.681 425.323L505.597 418.466L492.85 413.25L482.786 409.395L474.916 406.695L468.872 404.998L464.374 404.193L461.206 404.196L459.201 404.948L458.227 406.407L458.178 408.542L458.969 411.332L460.526 414.763L462.786 418.823L465.685 423.499L469.163 428.777L473.155 434.634L477.59 441.043L482.386 447.961L487.453 455.333L492.689 463.088L497.977 471.138L503.195 479.377L508.208 487.681L512.881 495.917L517.077 503.937L520.67 511.592L523.545 518.737L525.607 525.234L526.788 530.967L527.047 535.84L526.377 539.789L524.802 542.783L522.374 544.823L519.174 545.947L515.299 546.217L510.864 545.723L505.989 544.572L500.798 542.887L495.408 540.792L489.932 538.415L484.469 535.882L479.107 533.308L473.919 530.8L468.965 528.457L464.291 526.361L459.933 524.588L455.913 523.198L452.246 522.245L448.938 521.771L445.988 521.811L443.39 522.39L441.13 523.528L439.194 525.237L437.559 527.52L436.202 530.375L435.095 533.788L434.204 537.738L433.493 542.193L432.923 547.105L432.449 552.416L432.021 558.049L431.588 563.913L431.095 569.898L430.485 575.876L429.699 581.706L428.682 587.231L427.381 592.287L425.749 596.708L423.748 600.329L421.354 603L418.552 604.59L415.345 605L411.751 604.163L407.803 602.057L403.547 598.7L399.042 594.156L394.352 588.529L389.547 581.955L384.699 574.597L379.874 566.637L375.134 558.264L370.534 549.667L366.116 541.026L361.915 532.51L357.955 524.27L354.248 516.44L350.803 509.133L347.615 502.446L344.678 496.463L341.979 491.254L339.502 486.881L337.227 483.403L335.134 480.882L333.199 479.384L331.398 478.986L329.705 479.784L328.093 481.9L326.53 485.49L324.982 490.757L323.41 497.966L321.766 507.465L319.99 519.719L318.007 535.346L315.715 555.184L313.364 538.198L311.339 521.963L309.536 509.218L307.875 499.315L306.295 491.767L304.746 486.211L303.188 482.369L301.586 480.03L299.908 479.03L298.126 479.245L296.214 480.573L294.148 482.936L291.903 486.265L289.46 490.5L286.797 495.58L283.899 501.444L280.752 508.024L277.348 515.238L273.683 522.992L269.762 531.175L265.598 539.657L261.213 548.289L256.639 556.905L251.918 565.327L247.103 573.365L242.254 580.831L237.438 587.541L232.725 593.33L228.185 598.054L223.885 601.605L219.885 603.913L216.232 604.951L212.962 604.737L210.095 603.328L207.636 600.821L205.574 597.342L203.886 593.038L202.535 588.072L201.476 582.61L200.657 576.819L200.022 570.854L199.514 564.862L199.076 558.971L198.651 553.294L198.188 547.926L197.636 542.946L196.95 538.415L196.091 534.382L195.02 530.881L193.705 527.937L192.116 525.562L190.229 523.762L188.022 522.534L185.479 521.867L182.586 521.742L179.335 522.137L175.725 523.016L171.761 524.339L167.455 526.055L162.829 528.104L157.917 530.414L152.762 532.901L147.423 535.471L141.971 538.019L136.491 540.429L131.08 542.577L125.849 544.337L120.916 545.58L116.403 546.187L112.431 546.045L109.116 545.062L106.559 543.171L104.844 540.33L104.027 536.532L104.138 531.802L105.174 526.201L107.1 519.818L109.851 512.768L113.337 505.184L117.446 497.212L122.051 489.001L127.02 480.698L132.213 472.441L137.499 464.353L142.751 456.544L147.852 449.106L152.698 442.112L157.196 435.619L161.264 429.671L164.828 424.3L167.824 419.527L170.189 415.368L171.862 411.836L172.78 408.943L172.871 406.702L172.05 405.134L170.217 404.267L167.244 404.141L162.971 404.813L157.191 406.361L149.634 408.892L139.948 412.551L127.667 417.534L112.167 424.107L100.509 428.086L116.075 416.501L128.242 407.219L137.661 399.752L144.811 393.738L150.052 388.903L153.652 385.037L155.814 381.979L156.691 379.6L156.4 377.8L155.028 376.495L152.644 375.617L149.301 375.106L145.044 374.91L139.916 374.98L133.957 375.272L127.216 375.738L119.748 376.333L111.623 377.009L102.925 377.715L93.7597 378.399L84.251 379.006L74.5446 379.481L64.805 379.77L55.213 379.82L45.9596 379.584L37.2394 379.022L29.2416 378.103L22.1407 376.808L16.0871 375.131L11.1986 373.079L7.55366 370.671L5.18743 367.939L4.09033 364.925L4.20999 361.677L5.45571 358.249L7.70508 354.693L10.8119 351.063L14.6148 347.407L18.9451 343.768L23.6347 340.18L28.5217 336.673L33.4554 333.267L38.299 329.975L42.932 326.802L47.2503 323.75L51.166 320.814L54.6069 317.983L57.5149 315.247L59.8446 312.59L61.5623 309.994L62.6443 307.441L63.0764 304.911L62.8529 302.384L61.9768 299.84L60.4595 297.26L58.3216 294.624L55.5935 291.915L52.3166 289.116L48.545 286.214L44.3462 283.2L39.803 280.066L35.0141 276.812L30.095 273.44L25.1774 269.964L20.4078 266.399L15.945 262.773L11.9557 259.118L8.60912 255.474L6.06985 251.889L4.48985 248.415L4 245.103L4.7019 242.009L6.66073 239.183L9.90001 236.668L14.3989 234.499L20.0924 232.701L26.8746 231.285L34.6047 230.248L43.1149 229.575L52.2195 229.239L61.7247 229.203L71.4375 229.421L81.1732 229.842L90.7616 230.414L100.051 231.079L108.91 231.784L117.228 232.475L124.913 233.101L131.892 233.614L138.106 233.966L143.503 234.112L148.042 234.006L151.681 233.6L154.376 232.845L156.077 231.683L156.721 230.049L156.227 227.865L154.488 225.035L151.366 221.442L146.673 216.936L140.165 211.323L131.515 204.354L120.285 195.696L105.885 184.907L106.425 182.427L123.115 189.577L136.344 195.034L146.799 199.09L154.991 201.963L161.305 203.811L166.033 204.752L169.401 204.873L171.582 204.237L172.713 202.888L172.902 200.86L172.24 198.172L170.8 194.842L168.649 190.882L165.847 186.303L162.457 181.12L158.542 175.353L154.173 169.03L149.428 162.19L144.398 154.886L139.182 147.186L133.893 139.177L128.656 130.96L123.601 122.657L118.865 114.401L114.584 106.337L110.886 98.6137L107.89 91.3782L105.693 84.769L104.369 78.9078L103.962 73.8929L104.484 69.7937L105.918 66.647L108.215 64.4558L111.298 63.1901L115.073 62.7896L119.427 63.1688L124.24 64.2222L129.389 65.8312L134.755 67.8696L140.224 70.2096L145.695 72.7262L151.079 75.3013L156.299 77.8259L161.294 80.2016L166.015 82.3418L170.425 84.1711L174.5 85.6255L178.224 86.6511L181.589 87.2038L184.596 87.2479L187.25 86.7559L189.562 85.7077L191.549 84.0905L193.23 81.8987L194.629 79.1347L195.774 75.8092L196.697 71.9425L197.434 67.5658L198.024 62.7227L198.51 57.4708L198.942 51.8828L199.37 46.0487L199.85 40.0752L200.437 34.0866L201.191 28.2233L202.168 22.6388L203.421 17.4967L204.997 12.964L206.937 9.20517L209.268 6.37356L212.004 4.60312L215.147 4L218.681 4.63535L222.576 6.53981L226.786 9.70055L231.256 14.0612L235.922 19.5245L240.713 25.9584L245.559 33.2029L250.392 41.0793L255.149 49.3992L259.775 57.9734L264.224 66.619L268.461 75.1655L272.461 83.4587L276.208 91.3626L279.696 98.7599L282.924 105.551L285.9 111.651L288.636 116.988L291.148 121.498L293.453 125.122L295.574 127.8L297.532 129.466L299.353 130.045L301.061 129.445L302.684 127.548L304.253 124.205L305.8 119.221L307.366 112.343L308.995 103.236L310.745 91.4574L312.689 76.4169L314.924 57.3167L317.316 67.8562L319.385 84.7214L321.218 97.9736L322.897 108.294L324.486 116.189L326.037 122.042L327.591 126.142L329.184 128.708L330.848 129.912L332.612 129.884L334.502 128.726L336.542 126.523L338.756 123.344L341.167 119.25L343.793 114.3L346.653 108.556L349.759 102.086L353.123 94.9667L356.746 87.2914L360.627 79.1684L364.753 70.7248L369.105 62.1061L373.652 53.4757L378.352 45.0109L383.156 36.8988L388.004 29.3293L392.83 22.4868L397.564 16.5414L402.136 11.6394L406.478 7.89574L410.53 5.38673L414.241 4.14619L417.574 4.16406L420.506 5.388L423.029 7.72778L425.153 11.0617L426.899 15.2447L428.301 20.1165L429.403 25.5104L430.256 31.2604L430.917 37.2075L431.441 43.2047L431.886 49.1198L432.31 54.8377L432.764 60.2603L433.298 65.3068L433.96 69.9126L434.789 74.0276L435.824 77.6148L437.098 80.649L438.641 83.115L440.479 85.0065L442.634 86.3254L445.123 87.0811L447.96 87.2902L451.153 86.9766L454.706 86.172L458.615 84.9163L462.867 83.2588L467.444 81.2585L472.313 78.9852L477.433 76.5202L482.747 73.9562L488.186 71.3974L493.668 68.9578L499.097 66.7595L504.364 64.9293L509.353 63.5951L513.942 62.8796L518.007 62.8955L521.434 63.7387L524.118 65.482L525.972 68.1704L526.934 71.817L526.971 76.4012L526.082 81.8686L524.294 88.1343L521.669 95.0869L518.293 102.595L514.275 110.515L509.74 118.698L504.82 126.996L499.653 135.27L494.373 143.392L489.108 151.252L483.975 158.754L479.082 165.824L474.523 172.4L470.382 178.436L466.733 183.901L463.642 188.771L461.173 193.028L459.385 196.661L458.342 199.657L458.115 202.002L458.784 203.679L460.448 204.66L463.229 204.907L467.283 204.367L472.807 202.965L480.06 200.6L489.379 197.132L501.21 192.375L516.147 186.077L533.368 178.832L517.187 190.84L504.527 200.452L494.707 208.181L487.222 214.406L481.697 219.414L477.851 223.422L475.471 226.6L474.397 229.079L474.509 230.965L475.714 232.344L477.941 233.286L481.134 233.852L485.248 234.095L490.241 234.064L496.07 233.805L502.69 233.363L510.046 232.785L518.072 232.119L526.685 231.414L535.784 230.723L545.247 230.1L554.933 229.6L564.679 229.278L574.307 229.187L583.627 229.375L592.445 229.883L600.57 230.743L607.825 231.977L614.054 233.593L619.134 235.587L622.981 237.94L625.551 240.623L626.848 243.595L626.917 246.809L625.843 250.212L623.744 253.751L620.764 257.373L617.06 261.028L612.803 264.672L608.159 268.27L603.293 271.791L598.358 275.215L593.491 278.526L588.817 281.718L584.442 284.789L580.457 287.743L576.937 290.589L573.94 293.34L571.516 296.009L569.699 298.613L568.515 301.172L567.978 303.704L567.945 304.508Z" stroke="#0D0029" stroke-opacity="0.17" stroke-width="6"/>
<path d="M480.515 304.506V304.506ZM480.515 304.506L480.728 306.15L481.367 307.808L482.421 309.492L483.877 311.213L485.714 312.985L487.903 314.816L490.409 316.715L493.184 318.688L496.175 320.739L499.315 322.869L502.527 325.074L505.723 327.346L508.806 329.672L511.673 332.036L514.213 334.415L516.317 336.781L517.879 339.104L518.801 341.35L519 343.484L518.414 345.472L517.005 347.28L514.762 348.882L511.702 350.255L507.874 351.385L503.349 352.267L498.222 352.903L492.607 353.305L486.623 353.491L480.399 353.486L474.059 353.32L467.722 353.028L461.499 352.645L455.484 352.205L449.763 351.746L444.404 351.301L439.466 350.903L434.995 350.584L431.028 350.375L427.598 350.304L424.732 350.402L422.456 350.699L420.801 351.23L419.799 352.032L419.494 353.149L419.94 354.632L421.209 356.546L423.398 358.971L426.633 362.008L431.08 365.788L436.964 370.481L444.583 376.313L454.34 383.586L450.365 383.105L439.883 378.645L431.576 375.251L425.018 372.743L419.889 370.986L415.95 369.882L413.019 369.359L410.955 369.361L409.648 369.85L409.013 370.799L408.981 372.188L409.497 374.003L410.512 376.235L411.984 378.877L413.873 381.919L416.14 385.352L418.742 389.163L421.631 393.332L424.757 397.833L428.059 402.629L431.471 407.675L434.918 412.912L438.318 418.272L441.585 423.675L444.63 429.032L447.365 434.25L449.707 439.23L451.58 443.879L452.924 448.106L453.693 451.835L453.862 455.005L453.426 457.575L452.399 459.522L450.817 460.85L448.731 461.581L446.206 461.757L443.316 461.435L440.139 460.687L436.756 459.59L433.244 458.227L429.675 456.681L426.115 455.033L422.62 453.358L419.239 451.727L416.011 450.202L412.965 448.839L410.125 447.685L407.505 446.781L405.115 446.161L402.96 445.853L401.037 445.879L399.344 446.256L397.871 446.996L396.609 448.108L395.544 449.593L394.66 451.45L393.938 453.671L393.357 456.241L392.894 459.139L392.523 462.335L392.214 465.79L391.935 469.455L391.653 473.27L391.332 477.163L390.934 481.053L390.422 484.845L389.759 488.44L388.911 491.729L387.847 494.605L386.544 496.961L384.983 498.699L383.157 499.734L381.068 500L378.726 499.456L376.153 498.085L373.379 495.902L370.443 492.945L367.386 489.284L364.255 485.007L361.096 480.22L357.951 475.042L354.863 469.595L351.865 464.001L348.986 458.38L346.248 452.839L343.667 447.479L341.252 442.384L339.006 437.63L336.929 433.28L335.015 429.388L333.256 425.999L331.642 423.154L330.159 420.891L328.795 419.251L327.534 418.276L326.361 418.017L325.257 418.537L324.206 419.914L323.188 422.249L322.18 425.676L321.155 430.365L320.084 436.546L318.926 444.518L317.634 454.684L316.14 467.591L314.608 456.54L313.288 445.978L312.113 437.686L311.031 431.243L310.001 426.333L308.992 422.718L307.977 420.218L306.932 418.696L305.839 418.046L304.678 418.186L303.432 419.05L302.085 420.588L300.622 422.753L299.03 425.508L297.295 428.813L295.406 432.629L293.355 436.909L291.137 441.602L288.748 446.647L286.193 451.971L283.48 457.489L280.622 463.105L277.641 468.71L274.565 474.189L271.427 479.419L268.267 484.276L265.128 488.642L262.056 492.407L259.098 495.481L256.296 497.791L253.689 499.293L251.308 499.968L249.177 499.829L247.309 498.912L245.707 497.281L244.363 495.018L243.263 492.218L242.382 488.987L241.692 485.434L241.158 481.666L240.745 477.785L240.414 473.887L240.128 470.054L239.851 466.361L239.549 462.869L239.19 459.629L238.743 456.681L238.183 454.057L237.485 451.78L236.628 449.864L235.593 448.319L234.363 447.148L232.925 446.349L231.267 445.915L229.382 445.834L227.263 446.091L224.911 446.663L222.327 447.523L219.521 448.64L216.507 449.973L213.305 451.476L209.946 453.094L206.467 454.766L202.914 456.423L199.342 457.991L195.816 459.389L192.407 460.533L189.192 461.343L186.251 461.737L183.663 461.645L181.502 461.006L179.836 459.775L178.718 457.927L178.186 455.456L178.259 452.379L178.934 448.735L180.189 444.582L181.981 439.995L184.253 435.062L186.931 429.875L189.932 424.533L193.17 419.131L196.555 413.759L200 408.498L203.422 403.417L206.746 398.578L209.905 394.028L212.836 389.804L215.486 385.934L217.809 382.44L219.762 379.335L221.303 376.629L222.394 374.331L222.992 372.449L223.051 370.991L222.516 369.971L221.321 369.407L219.384 369.325L216.599 369.762L212.832 370.769L207.907 372.415L201.595 374.796L193.592 378.038L183.491 382.314L175.894 384.903L186.038 377.366L193.967 371.327L200.105 366.469L204.764 362.557L208.18 359.411L210.526 356.896L211.935 354.906L212.507 353.359L212.317 352.188L211.423 351.339L209.869 350.767L207.69 350.435L204.916 350.307L201.574 350.353L197.691 350.543L193.298 350.846L188.431 351.233L183.136 351.673L177.468 352.133L171.495 352.577L165.298 352.972L158.973 353.282L152.626 353.469L146.375 353.502L140.344 353.348L134.662 352.983L129.45 352.385L124.822 351.543L120.877 350.452L117.691 349.116L115.316 347.55L113.774 345.772L113.059 343.812L113.137 341.699L113.949 339.468L115.415 337.155L117.439 334.793L119.918 332.415L122.74 330.047L125.796 327.713L128.98 325.431L132.196 323.215L135.352 321.073L138.371 319.009L141.186 317.024L143.737 315.113L145.98 313.272L147.875 311.492L149.393 309.763L150.513 308.074L151.218 306.413L151.499 304.767L151.354 303.123L150.783 301.469L149.794 299.79L148.401 298.075L146.623 296.312L144.487 294.491L142.029 292.604L139.293 290.643L136.332 288.604L133.211 286.486L130.006 284.293L126.801 282.031L123.693 279.712L120.784 277.353L118.185 274.975L116.004 272.605L114.349 270.273L113.319 268.012L113 265.858L113.457 263.845L114.734 262.006L116.845 260.37L119.777 258.959L123.487 257.789L127.907 256.868L132.945 256.193L138.491 255.755L144.424 255.537L150.618 255.513L156.948 255.655L163.293 255.929L169.541 256.301L175.595 256.734L181.368 257.192L186.789 257.642L191.797 258.049L196.346 258.383L200.395 258.612L203.912 258.707L206.87 258.638L209.241 258.374L210.998 257.883L212.106 257.127L212.526 256.063L212.204 254.642L211.071 252.802L209.036 250.464L205.978 247.532L201.737 243.881L196.1 239.347L188.781 233.714L179.397 226.695L179.749 225.082L190.625 229.733L199.247 233.283L206.06 235.922L211.399 237.791L215.513 238.993L218.595 239.606L220.789 239.684L222.21 239.27L222.948 238.393L223.071 237.073L222.64 235.325L221.701 233.159L220.299 230.582L218.473 227.603L216.264 224.231L213.713 220.48L210.865 216.366L207.773 211.916L204.495 207.164L201.096 202.154L197.65 196.943L194.236 191.598L190.942 186.196L187.856 180.825L185.066 175.579L182.656 170.554L180.704 165.847L179.272 161.547L178.409 157.734L178.144 154.471L178.484 151.804L179.419 149.757L180.915 148.332L182.925 147.508L185.385 147.248L188.222 147.494L191.359 148.18L194.714 149.226L198.211 150.552L201.775 152.075L205.341 153.712L208.849 155.387L212.251 157.03L215.506 158.575L218.582 159.968L221.457 161.158L224.112 162.104L226.539 162.771L228.732 163.131L230.692 163.16L232.421 162.84L233.928 162.158L235.223 161.105L236.318 159.68L237.23 157.881L237.977 155.718L238.578 153.202L239.058 150.355L239.442 147.204L239.759 143.787L240.041 140.152L240.32 136.356L240.632 132.47L241.015 128.574L241.507 124.759L242.143 121.126L242.96 117.781L243.987 114.832L245.251 112.386L246.77 110.544L248.553 109.392L250.602 109L252.905 109.413L255.443 110.652L258.187 112.709L261.1 115.546L264.14 119.1L267.262 123.286L270.42 127.999L273.57 133.123L276.67 138.536L279.685 144.114L282.584 149.739L285.345 155.299L287.952 160.694L290.394 165.837L292.667 170.649L294.771 175.067L296.71 179.036L298.493 182.508L300.13 185.442L301.632 187.8L303.014 189.542L304.291 190.626L305.477 191.003L306.59 190.612L307.648 189.378L308.67 187.203L309.679 183.961L310.699 179.486L311.761 173.561L312.901 165.898L314.168 156.113L315.625 143.687L317.183 150.544L318.532 161.516L319.726 170.138L320.821 176.852L321.856 181.988L322.867 185.796L323.88 188.463L324.918 190.133L326.002 190.916L327.152 190.898L328.383 190.145L329.713 188.712L331.156 186.643L332.727 183.98L334.438 180.759L336.302 177.022L338.326 172.813L340.518 168.181L342.879 163.188L345.408 157.903L348.098 152.41L350.934 146.803L353.897 141.188L356.96 135.681L360.091 130.403L363.25 125.479L366.395 121.027L369.48 117.159L372.46 113.97L375.289 111.535L377.93 109.902L380.348 109.095L382.52 109.107L384.431 109.903L386.075 111.425L387.459 113.594L388.597 116.316L389.511 119.485L390.229 122.994L390.785 126.735L391.215 130.604L391.557 134.506L391.847 138.354L392.123 142.074L392.419 145.602L392.768 148.885L393.198 151.882L393.739 154.559L394.413 156.893L395.244 158.867L396.249 160.471L397.447 161.701L398.851 162.559L400.473 163.051L402.322 163.187L404.403 162.983L406.719 162.46L409.266 161.643L412.037 160.564L415.02 159.263L418.193 157.784L421.529 156.18L424.992 154.512L428.537 152.848L432.11 151.26L435.648 149.83L439.08 148.64L442.331 147.771L445.321 147.306L447.971 147.316L450.204 147.865L451.953 148.999L453.161 150.748L453.789 153.121L453.813 156.103L453.233 159.66L452.068 163.736L450.357 168.26L448.157 173.144L445.539 178.297L442.583 183.621L439.377 189.019L436.01 194.402L432.569 199.686L429.138 204.799L425.793 209.68L422.604 214.28L419.633 218.558L416.934 222.485L414.556 226.041L412.542 229.209L410.933 231.978L409.768 234.342L409.088 236.291L408.94 237.817L409.376 238.908L410.461 239.546L412.273 239.707L414.915 239.356L418.515 238.443L423.242 236.904L429.315 234.648L437.024 231.554L446.759 227.456L457.982 222.743L447.436 230.555L439.186 236.808L432.786 241.837L427.909 245.887L424.308 249.144L421.802 251.752L420.251 253.82L419.551 255.433L419.624 256.66L420.409 257.557L421.86 258.17L423.942 258.538L426.622 258.696L429.876 258.676L433.675 258.507L437.989 258.22L442.783 257.844L448.013 257.41L453.626 256.952L459.556 256.502L465.723 256.097L472.035 255.772L478.386 255.562L484.661 255.503L490.735 255.625L496.481 255.955L501.776 256.515L506.504 257.318L510.563 258.369L513.874 259.666L516.381 261.197L518.056 262.942L518.901 264.876L518.946 266.967L518.246 269.181L516.878 271.484L514.936 273.84L512.523 276.218L509.748 278.589L506.722 280.929L503.551 283.22L500.334 285.448L497.163 287.602L494.117 289.678L491.266 291.676L488.669 293.598L486.374 295.45L484.422 297.239L482.842 298.976L481.658 300.67L480.886 302.335L480.537 303.982L480.515 304.506Z" stroke="#0D0029" stroke-opacity="0.17" stroke-width="6"/>
</svg>
