<svg width="165" height="63" viewBox="0 0 165 63" fill="none" xmlns="http://www.w3.org/2000/svg">
<path fill-rule="evenodd" clip-rule="evenodd" d="M8.24927 2.61746e-06C10.4351 -0.00173807 12.5321 0.864794 14.0791 2.40902C15.6261 3.95324 16.4964 6.04869 16.4985 8.23451C16.4969 10.1162 15.8515 11.9406 14.6694 13.4046C13.4873 14.8686 11.8399 15.884 10.0008 16.2821V19.9344H14.975V23.4309H10.0008V27.7277C11.7504 28.1234 13.3137 29.1019 14.4341 30.5027C15.5546 31.9036 16.1657 33.6436 16.1673 35.4374C16.1664 36.4763 15.9609 37.5048 15.5625 38.4642C15.1641 39.4237 14.5806 40.2952 13.8453 41.0291C13.11 41.763 12.2374 42.3449 11.2772 42.7415C10.317 43.1381 9.28813 43.3417 8.24927 43.3406C7.2104 43.3417 6.1815 43.1381 5.22132 42.7415C4.26114 42.3449 3.3885 41.763 2.65322 41.0291C1.91795 40.2952 1.33445 39.4237 0.936046 38.4642C0.537643 37.5048 0.332144 36.4763 0.331283 35.4374C0.332844 33.6436 0.943964 31.9036 2.06441 30.5027C3.18485 29.1019 4.74809 28.1234 6.49773 27.7277V23.4309H1.52357V19.9344H6.49773V16.2821C4.65867 15.884 3.0112 14.8686 1.82914 13.4046C0.647074 11.9406 0.00160224 10.1162 0 8.23451C0.00217382 6.04869 0.87246 3.95324 2.41945 2.40902C3.96644 0.864794 6.06345 -0.00173807 8.24927 2.61746e-06ZM27.9458 27.5342C26.9069 27.5331 25.8779 27.7367 24.9176 28.1333C23.9574 28.5299 23.0846 29.1117 22.3492 29.8456C21.6138 30.5795 21.0301 31.451 20.6316 32.4105C20.233 33.3699 20.0273 34.3985 20.0262 35.4374C20.0273 36.4764 20.233 37.5049 20.6316 38.4644C21.0301 39.4238 21.6138 40.2954 22.3492 41.0292C23.0846 41.7631 23.9574 42.345 24.9176 42.7416C25.8779 43.1381 26.9069 43.3417 27.9458 43.3406C28.9847 43.3417 30.0136 43.1381 30.9738 42.7415C31.934 42.3449 32.8066 41.763 33.5419 41.0291C34.2771 40.2952 34.8606 39.4237 35.2591 38.4642C35.6575 37.5048 35.863 36.4763 35.8638 35.4374C35.8616 33.3395 35.0263 31.3283 33.5414 29.8462C32.0565 28.3641 30.0438 27.5324 27.9458 27.5342ZM8.24927 47.193C9.28813 47.192 10.317 47.3955 11.2772 47.7921C12.2374 48.1888 13.11 48.7706 13.8453 49.5045C14.5806 50.2384 15.1641 51.11 15.5625 52.0694C15.9609 53.0289 16.1664 54.0574 16.1673 55.0963C16.1664 56.1351 15.9609 57.1636 15.5625 58.1231C15.1641 59.0825 14.5806 59.9541 13.8453 60.688C13.11 61.4219 12.2374 62.0038 11.2772 62.4004C10.317 62.797 9.28813 63.0006 8.24927 62.9995C7.2104 63.0006 6.1815 62.797 5.22132 62.4004C4.26114 62.0038 3.3885 61.4219 2.65322 60.688C1.91795 59.9541 1.33445 59.0825 0.936046 58.1231C0.537643 57.1636 0.332144 56.1351 0.331283 55.0963C0.332144 54.0574 0.537643 53.0289 0.936046 52.0694C1.33445 51.11 1.91795 50.2384 2.65322 49.5045C3.3885 48.7706 4.26114 48.1888 5.22132 47.7921C6.1815 47.3955 7.2104 47.192 8.24927 47.193ZM27.9458 47.193C26.9069 47.192 25.8779 47.3955 24.9176 47.7921C23.9574 48.1887 23.0846 48.7705 22.3492 49.5044C21.6138 50.2383 21.0301 51.1099 20.6316 52.0693C20.233 53.0288 20.0273 54.0573 20.0262 55.0963C20.0273 56.1352 20.233 57.1638 20.6316 58.1232C21.0301 59.0826 21.6138 59.9542 22.3492 60.6881C23.0846 61.422 23.9574 62.0038 24.9176 62.4004C25.8779 62.797 26.9069 63.0006 27.9458 62.9995C28.9847 63.0006 30.0136 62.797 30.9738 62.4004C31.934 62.0038 32.8066 61.4219 33.5419 60.688C34.2771 59.9541 34.8606 59.0825 35.2591 58.1231C35.6575 57.1636 35.863 56.1351 35.8638 55.0963C35.8616 52.9983 35.0263 50.9871 33.5414 49.505C32.0565 48.0229 30.0438 47.1913 27.9458 47.193ZM8.24927 3.57851C8.86127 3.57787 9.46741 3.6978 10.033 3.93145C10.5987 4.16511 11.1128 4.50791 11.5459 4.94028C11.979 5.37265 12.3227 5.88612 12.5574 6.45135C12.792 7.01658 12.913 7.62251 12.9135 8.23451C12.913 8.84651 12.792 9.45244 12.5574 10.0177C12.3227 10.5829 11.979 11.0964 11.5459 11.5287C11.1128 11.9611 10.5987 12.3039 10.033 12.5376C9.46741 12.7712 8.86127 12.8912 8.24927 12.8905C7.63726 12.8912 7.03113 12.7712 6.46549 12.5376C5.89984 12.3039 5.38577 11.9611 4.95264 11.5287C4.51951 11.0964 4.1758 10.5829 3.94115 10.0177C3.7065 9.45244 3.5855 8.84651 3.58507 8.23451C3.5855 7.62251 3.7065 7.01658 3.94115 6.45135C4.1758 5.88612 4.51951 5.37265 4.95264 4.94028C5.38577 4.50791 5.89984 4.16511 6.46549 3.93145C7.03113 3.6978 7.63726 3.57787 8.24927 3.57851ZM66.7141 62.6108H65.3644C64.9018 62.6132 64.4434 62.5226 64.0166 62.3442C63.5897 62.1659 63.2031 61.9035 62.8798 61.5727C62.563 61.2487 62.3089 60.8689 62.1303 60.4525C61.945 60.0187 61.8507 59.5515 61.8531 59.0798V52.4345H52.3328V59.0798C52.3328 59.5702 52.2393 60.0278 52.0557 60.4525C51.877 60.8701 51.6211 61.2501 51.3013 61.5727C50.9796 61.8924 50.6015 62.1499 50.1861 62.332C49.7646 62.5157 49.3086 62.6108 48.8216 62.6108H47.4735V38.8782H48.8216C49.3086 38.8782 49.7646 38.9749 50.1861 39.1586C50.6075 39.3423 50.9782 39.5932 51.3013 39.9114C51.6227 40.2345 51.872 40.6035 52.0557 41.0266C52.2393 41.4513 52.3328 41.9089 52.3328 42.3944V48.4526H61.8531V42.3944C61.8512 41.9243 61.9455 41.4588 62.1303 41.0266C62.3139 40.6035 62.5632 40.2345 62.8798 39.9114C63.1914 39.5932 63.5636 39.3423 63.99 39.1586C64.4165 38.9749 64.8773 38.8782 65.3644 38.8782H66.7141V62.6108ZM85.4398 59.1914C85.3577 59.3104 85.2684 59.4243 85.1725 59.5325C85.0537 59.6687 84.9318 59.8021 84.8067 59.9327C84.6788 60.0737 84.546 60.2016 84.4181 60.3295L84.0753 60.6477C83.8554 60.8345 83.6272 61.0112 83.3914 61.1774C83.144 61.3515 82.8848 61.5083 82.6157 61.6465C82.3249 61.8003 82.0241 61.9346 81.7153 62.0483C81.391 62.1636 81.0616 62.2637 80.728 62.3484C80.3667 62.4386 79.9995 62.5038 79.6292 62.5436C79.2335 62.5897 78.8353 62.6121 78.4369 62.6108C77.1003 62.6108 75.9244 62.3943 74.8912 61.9581C74.3786 61.7511 73.888 61.4934 73.4267 61.1889C72.0946 60.3206 71.085 59.0384 70.5534 57.5399C70.1556 56.5021 69.9559 55.399 69.9646 54.2877V53.6678C69.9646 53.0102 70.0154 52.3902 70.104 51.8047C70.1975 51.2143 70.3418 50.6453 70.537 50.1041C70.9142 48.9987 71.4406 48.0622 72.1114 47.2865C72.8098 46.5025 73.669 45.8782 74.6305 45.4563C75.5964 45.0217 76.7001 44.8035 77.9482 44.8035C79.1913 44.8035 80.2737 45.0053 81.1839 45.412C81.6595 45.6301 82.0942 45.8745 82.4828 46.1533C83.2687 46.7373 83.9179 47.4856 84.3852 48.346C84.6231 48.7871 84.8231 49.2726 84.9839 49.7974C85.1889 50.4829 85.3283 51.2357 85.3889 52.0557V52.8872C85.373 53.2075 85.2915 53.5212 85.1495 53.8088C85.0121 54.0866 84.8241 54.3363 84.5952 54.5452C84.3645 54.7524 84.0999 54.9183 83.8129 55.0356C83.5184 55.1544 83.2038 55.2151 82.8863 55.2143H74.5813C74.6255 55.4981 74.6862 55.7605 74.7649 56.0114C74.8355 56.2623 74.9306 56.4968 75.0355 56.7149C75.2635 57.1774 75.5571 57.5678 75.9179 57.8859C76.2393 58.1975 76.6509 58.4501 77.1495 58.6338C77.594 58.806 78.127 58.8962 78.742 58.8962C79.58 58.8962 80.3459 58.7453 81.0511 58.4386C81.5497 58.232 81.9941 58.0876 82.3762 58.0138C82.7185 57.939 83.0702 57.9163 83.4193 57.9466C83.7243 57.981 84.008 58.0598 84.2508 58.1877C84.5017 58.3107 84.7346 58.478 84.9511 58.6846L85.4398 59.1914ZM75.0027 50.6387C74.8228 51.1087 74.7037 51.5997 74.6485 52.0999H80.9888V51.7211C80.9792 51.2882 80.912 50.8586 80.7887 50.4435C80.6636 50.072 80.4718 49.7263 80.2229 49.4234C79.9639 49.1336 79.6411 48.9079 79.2799 48.7642C79.081 48.672 78.8701 48.6085 78.6534 48.5756C78.4149 48.5368 78.1735 48.5182 77.9318 48.5198C77.4776 48.5068 77.0263 48.5965 76.6116 48.7822C76.2471 48.9559 75.9222 49.2026 75.6571 49.5071C75.3744 49.843 75.1529 50.2261 75.0027 50.6387ZM97.2233 49.6235L97.1413 49.6071C96.9904 49.5956 96.8461 49.5907 96.7132 49.5842C96.5738 49.5793 96.4361 49.5743 96.2967 49.5743C95.8853 49.5695 95.4746 49.6085 95.0716 49.6908C94.7278 49.7568 94.3985 49.8834 94.0991 50.0647C93.8354 50.2132 93.5932 50.3969 93.3791 50.6108C93.1675 50.824 92.9904 51.0749 92.8526 51.3537V60.4083C92.8563 60.7152 92.7987 61.0198 92.6832 61.3042C92.5678 61.5886 92.3968 61.8471 92.1802 62.0647C91.971 62.2775 91.7226 62.4479 91.4488 62.5665C91.1693 62.6841 90.8693 62.7451 90.5661 62.7461C90.2629 62.7471 89.9625 62.688 89.6822 62.5723C89.402 62.4566 89.1474 62.2865 88.9333 62.0718C88.7191 61.8572 88.5496 61.6023 88.4344 61.3217C88.317 61.0315 88.2568 60.7213 88.2573 60.4083V44.9216V44.938H89.2167C89.9941 44.9495 90.6944 45.1545 91.3143 45.5514C91.9408 45.9483 92.4131 46.4714 92.7395 47.1241C93.0626 46.4714 93.5349 45.9483 94.1614 45.5514C94.7903 45.1527 95.5192 44.9401 96.2639 44.938H97.2233V49.6235ZM109.053 55.8441L113.281 41.7236C113.423 41.2156 113.663 40.7399 113.986 40.323C114.306 39.9163 114.678 39.5768 115.111 39.3144C115.993 38.7622 117.048 38.5554 118.073 38.7338L119.455 38.9634L112.01 60.4345C111.801 61.0651 111.396 61.6126 110.855 61.9974C110.317 62.3828 109.707 62.578 109.035 62.578C108.354 62.578 107.742 62.3828 107.199 61.9909C106.666 61.6044 106.268 61.0599 106.061 60.4345L98.6993 39.0405L99.9523 38.7962C100.492 38.701 101.023 38.701 101.546 38.806C102.061 38.9077 102.543 39.0963 102.983 39.3587C103.421 39.6276 103.805 39.9671 104.131 40.3804C104.452 40.7986 104.697 41.2726 104.859 41.8023L109.053 55.8441ZM135.562 59.1914C135.48 59.3104 135.392 59.4244 135.296 59.5325C135.176 59.6683 135.054 59.8017 134.929 59.9327C134.801 60.0737 134.668 60.2016 134.54 60.3295L134.197 60.6477C133.978 60.8349 133.75 61.0116 133.514 61.1774C133.266 61.3519 133.007 61.5086 132.738 61.6465C132.447 61.8 132.147 61.9343 131.839 62.0483C131.527 62.1598 131.195 62.2598 130.852 62.3484C130.49 62.4385 130.123 62.5037 129.753 62.5436C129.357 62.5896 128.958 62.6121 128.559 62.6108C127.222 62.6108 126.047 62.3943 125.015 61.9581C124.502 61.7514 124.011 61.4937 123.549 61.1889C122.219 60.3183 121.21 59.0369 120.675 57.5399C120.278 56.5021 120.079 55.3989 120.088 54.2877V53.6678C120.088 53.0102 120.138 52.3902 120.226 51.8047C120.317 51.2256 120.462 50.6563 120.659 50.1041C121.036 48.9987 121.563 48.0622 122.235 47.2865C122.934 46.5025 123.793 45.8782 124.754 45.4563C125.719 45.0217 126.824 44.8035 128.072 44.8035C129.315 44.8035 130.396 45.0053 131.306 45.412C131.783 45.6301 132.216 45.8745 132.605 46.1533C132.994 46.4337 133.348 46.7568 133.664 47.1307C133.986 47.4981 134.27 47.9064 134.507 48.346C134.747 48.7871 134.945 49.2726 135.106 49.7974C135.313 50.4829 135.45 51.2357 135.511 52.0557V52.8872C135.496 53.2074 135.415 53.5211 135.273 53.8088C134.995 54.3691 134.519 54.8062 133.937 55.0356C133.642 55.1544 133.326 55.2151 133.008 55.2143H124.703C124.785 55.7332 124.939 56.2383 125.159 56.7149C125.386 57.1774 125.681 57.5678 126.042 57.8859C126.361 58.1975 126.773 58.4501 127.273 58.6338C127.716 58.806 128.249 58.8962 128.866 58.8962C129.702 58.8962 130.468 58.7453 131.173 58.4386C131.672 58.232 132.116 58.0876 132.498 58.0138C132.882 57.9368 133.231 57.9138 133.541 57.9466C133.848 57.981 134.13 58.0598 134.374 58.1877C134.624 58.3107 134.857 58.478 135.073 58.6846L135.562 59.1914ZM125.125 50.6387C124.948 51.1097 124.829 51.6003 124.771 52.0999H131.111V51.7211C131.101 51.2884 131.034 50.8588 130.912 50.4435C130.786 50.0722 130.594 49.7267 130.345 49.4234C130.087 49.1337 129.764 48.908 129.404 48.7642C129.204 48.6722 128.993 48.6087 128.775 48.5756C128.537 48.5367 128.296 48.5181 128.054 48.5198C127.532 48.5198 127.096 48.6084 126.734 48.7822C126.369 48.9559 126.044 49.2026 125.779 49.5071C125.497 49.8435 125.276 50.2264 125.125 50.6387ZM152.09 55.4193C152.428 56.0278 152.593 56.7641 152.593 57.6284C152.593 58.3992 152.421 59.1077 152.072 59.7375C151.75 60.3673 151.268 60.9265 150.63 61.4054C150.306 61.6521 149.956 61.8632 149.587 62.0351C149.21 62.2139 148.798 62.3763 148.356 62.5206C147.473 62.783 146.486 62.9109 145.376 62.9109C144.133 62.9109 143.057 62.7387 142.158 62.3878C141.722 62.2311 141.3 62.0408 140.894 61.8187C140.507 61.6089 140.15 61.348 139.832 61.0429C139.479 60.698 139.163 60.3165 138.889 59.9048C138.662 59.5513 138.467 59.1781 138.307 58.7896C138.18 58.4756 138.082 58.1506 138.014 57.8187C137.965 57.5761 137.939 57.3297 137.935 57.0823L137.953 54.9897H138.88C139.406 54.9897 139.905 55.0897 140.37 55.2914C140.838 55.4915 141.248 55.7719 141.609 56.1163C141.986 56.5296 142.253 57.038 142.402 57.6399C142.425 57.7465 142.453 57.858 142.484 57.963C142.624 58.3979 142.906 58.7732 143.285 59.029C143.562 59.2127 143.895 59.3636 144.272 59.4866C144.643 59.5817 145.038 59.6309 145.459 59.6309C146.347 59.6309 147.012 59.4587 147.455 59.1077C147.667 58.9632 147.839 58.7682 147.957 58.5402C148.074 58.3123 148.133 58.0586 148.128 57.8023C148.128 57.5513 148.078 57.3267 147.978 57.1315C147.867 56.8952 147.684 56.7001 147.455 56.5739C147.305 56.4703 147.146 56.3808 146.98 56.3066C146.779 56.2146 146.576 56.1293 146.37 56.0507C146.11 55.9657 145.847 55.8929 145.581 55.8326C145.259 55.7554 144.937 55.6755 144.616 55.5932C143.78 55.4156 142.958 55.1749 142.158 54.8732C141.464 54.6099 140.809 54.2529 140.211 53.8121C139.953 53.5984 139.714 53.3636 139.495 53.1102C139.282 52.8628 139.096 52.5934 138.94 52.3066C138.64 51.7654 138.486 51.1127 138.486 50.3484C138.486 49.6514 138.64 48.9642 138.94 48.2902C139.278 47.626 139.728 47.0569 140.288 46.5895C140.936 46.0607 141.675 45.656 142.47 45.3956C143.4 45.1013 144.372 44.9579 145.348 44.9708C146.497 44.9708 147.495 45.1053 148.356 45.3775C148.798 45.5284 149.204 45.7023 149.581 45.8909C149.953 46.0811 150.297 46.3041 150.614 46.5551C151.229 47.0356 151.708 47.6145 152.044 48.3017C152.356 48.9429 152.528 49.6465 152.544 50.4091V52.6297H151.573C151.008 52.6381 150.448 52.5163 149.937 52.2738C149.456 52.0407 149.031 51.7055 148.693 51.2914C148.625 51.2179 148.568 51.135 148.523 51.0454C148.457 50.9277 148.401 50.8048 148.356 50.6781C148.297 50.5412 148.245 50.4017 148.2 50.2599C148.153 50.1259 148.112 49.9896 148.078 49.8515C148.022 49.6285 147.93 49.4159 147.806 49.2217C147.676 49.0111 147.502 48.8306 147.296 48.692C147.053 48.5095 146.769 48.3871 146.47 48.3345C146.093 48.2732 145.713 48.2452 145.331 48.2508C144.561 48.2508 143.967 48.4296 143.539 48.792C143.332 48.947 143.165 49.1494 143.052 49.3823C142.939 49.6152 142.884 49.8717 142.891 50.1303C142.893 50.3773 142.959 50.6194 143.085 50.8321C143.211 51.0447 143.391 51.2202 143.606 51.3406C143.728 51.4308 143.867 51.5145 144.028 51.5866C144.195 51.6653 144.382 51.7441 144.598 51.8162C144.805 51.8818 145.031 51.9491 145.281 52.0163C145.532 52.0786 145.802 52.1393 146.091 52.1951C147.003 52.3673 147.872 52.592 148.693 52.8642C149.094 52.9987 149.464 53.1496 149.797 53.3218C150.135 53.5005 150.447 53.6908 150.742 53.8958C151.035 54.1024 151.291 54.3369 151.513 54.5944C151.734 54.8453 151.929 55.1241 152.09 55.4193ZM162.032 59.4423C162.076 59.4538 162.197 59.4636 162.397 59.4817C162.598 59.4981 162.807 59.5095 163.03 59.5145L163.652 59.5308C163.841 59.5374 163.957 59.5374 164.001 59.5259V60.4066C164.001 60.7871 163.923 61.1381 163.773 61.4611C163.623 61.7751 163.418 62.0603 163.17 62.3041C162.918 62.5439 162.619 62.7298 162.292 62.8502C161.956 62.9754 161.595 63.0231 161.238 62.9896C160.667 62.9457 160.099 62.8751 159.536 62.7781C159.254 62.727 158.985 62.6187 158.747 62.4599C158.518 62.3007 158.3 62.1276 158.092 61.9417C157.684 61.5307 157.372 61.0329 157.182 60.4853C157.059 60.1678 156.975 59.8362 156.933 59.498C156.882 59.106 156.858 58.7109 156.861 58.3156V48.0508H154.535V46.9733C154.539 46.4342 154.757 45.9186 155.14 45.5399C155.529 45.1552 156.053 44.939 156.6 44.938H156.861V39.5145H157.799C158.243 39.5136 158.683 39.6028 159.091 39.7769C159.496 39.9507 159.846 40.1853 160.151 40.4854C160.451 40.7871 160.689 41.1381 160.861 41.5399C161.033 41.9417 161.121 42.3714 161.121 42.829V44.938H163.818V45.9975C163.818 46.2667 163.766 46.5335 163.663 46.7825C163.561 47.0315 163.41 47.2578 163.22 47.4485C163.03 47.6392 162.804 47.7906 162.555 47.8939C162.307 47.9972 162.04 48.0505 161.771 48.0508H161.121V57.858C161.121 58.1811 161.154 58.4599 161.222 58.6895C161.261 58.7896 161.305 58.8781 161.349 58.9683C161.391 59.0515 161.452 59.1239 161.527 59.1799C161.662 59.3192 161.84 59.4112 162.032 59.4423Z" fill="#A6A6A6"/>
</svg>
