<svg width="323" height="337" viewBox="0 0 323 337" fill="none" xmlns="http://www.w3.org/2000/svg">
<mask id="mask0_1_55" style="mask-type:alpha" maskUnits="userSpaceOnUse" x="0" y="0" width="580" height="337">
<rect width="580" height="337" fill="#D9D9D9"/>
</mask>
<g mask="url(#mask0_1_55)">
<path d="M530.021 36.5085V36.5085ZM530.021 36.5085L530.326 39.0365L531.238 41.5847L532.744 44.1726L534.824 46.8191L537.448 49.5417L540.576 52.3559L544.155 55.2748L548.121 58.308L552.393 61.4611L556.879 64.7348L561.466 68.1236L566.032 71.6158L570.437 75.192L574.532 78.8254L578.162 82.4816L581.167 86.1189L583.398 89.6897L584.715 93.1421L585 96.4223L584.163 99.4769L582.15 102.257L578.945 104.719L574.575 106.829L569.105 108.567L562.641 109.922L555.318 110.9L547.295 111.517L538.747 111.803L529.856 111.795L520.799 111.541L511.746 111.092L502.855 110.502L494.263 109.827L486.09 109.121L478.434 108.437L471.38 107.825L464.992 107.335L459.326 107.013L454.426 106.904L450.331 107.055L447.081 107.512L444.716 108.328L443.284 109.561L442.848 111.277L443.485 113.557L445.299 116.499L448.426 120.227L453.047 124.895L459.401 130.705L467.806 137.919L478.69 146.883L492.629 158.062L486.95 157.323L471.976 150.466L460.109 145.25L450.74 141.395L443.413 138.695L437.786 136.998L433.599 136.193L430.649 136.196L428.783 136.948L427.875 138.407L427.83 140.542L428.567 143.332L430.017 146.763L432.12 150.823L434.819 155.499L438.057 160.777L441.774 166.634L445.902 173.043L450.367 179.961L455.085 187.333L459.959 195.088L464.883 203.138L469.74 211.377L474.407 219.681L478.757 227.917L482.664 235.937L486.009 243.592L488.686 250.737L490.606 257.234L491.705 262.967L491.946 267.84L491.322 271.789L489.856 274.783L487.596 276.823L484.616 277.947L481.009 278.217L476.88 277.723L472.342 276.572L467.508 274.887L462.491 272.792L457.393 270.415L452.307 267.882L447.315 265.308L442.485 262.8L437.873 260.457L433.522 258.361L429.464 256.588L425.721 255.198L422.308 254.245L419.228 253.771L416.482 253.811L414.063 254.39L411.959 255.528L410.156 257.237L408.635 259.52L407.371 262.375L406.34 265.788L405.511 269.738L404.849 274.193L404.318 279.105L403.877 284.416L403.479 290.049L403.076 295.913L402.617 301.898L402.049 307.876L401.317 313.706L400.37 319.231L399.159 324.287L397.639 328.708L395.777 332.329L393.548 335L390.939 336.59L387.954 337L384.608 336.163L380.932 334.057L376.97 330.7L372.776 326.156L368.409 320.529L363.936 313.955L359.422 306.597L354.931 298.637L350.518 290.264L346.235 281.667L342.123 273.026L338.212 264.51L334.524 256.27L331.074 248.44L327.866 241.133L324.898 234.446L322.164 228.463L319.651 223.254L317.345 218.881L315.228 215.403L313.279 212.882L311.477 211.384L309.801 210.986L308.225 211.784L306.724 213.9L305.269 217.49L303.828 222.757L302.364 229.966L300.834 239.465L299.181 251.719L297.334 267.346L295.2 287.184L293.012 270.198L291.126 253.963L289.448 241.218L287.901 231.315L286.43 223.767L284.989 218.211L283.538 214.369L282.046 212.03L280.484 211.03L278.825 211.245L277.045 212.573L275.121 214.936L273.032 218.265L270.757 222.5L268.278 227.58L265.58 233.444L262.65 240.024L259.481 247.238L256.069 254.992L252.419 263.175L248.542 271.657L244.46 280.289L240.201 288.905L235.807 297.327L231.324 305.365L226.809 312.831L222.326 319.541L217.938 325.33L213.711 330.054L209.709 333.605L205.984 335.913L202.583 336.951L199.539 336.737L196.87 335.328L194.581 332.821L192.661 329.342L191.09 325.038L189.832 320.072L188.846 314.61L188.083 308.819L187.493 302.854L187.02 296.862L186.612 290.971L186.216 285.294L185.785 279.926L185.271 274.946L184.633 270.415L183.833 266.382L182.836 262.881L181.611 259.937L180.132 257.562L178.375 255.762L176.321 254.534L173.953 253.867L171.259 253.742L168.233 254.137L164.872 255.016L161.182 256.339L157.173 258.055L152.867 260.104L148.293 262.414L143.495 264.901L138.524 267.471L133.448 270.019L128.346 272.429L123.309 274.577L118.439 276.337L113.846 277.58L109.644 278.187L105.947 278.045L102.861 277.062L100.481 275.171L98.8836 272.33L98.1234 268.532L98.2268 263.802L99.1909 258.201L100.984 251.818L103.545 244.768L106.79 237.184L110.615 229.212L114.903 221.001L119.529 212.698L124.364 204.441L129.285 196.353L134.174 188.544L138.924 181.106L143.435 174.112L147.622 167.619L151.409 161.671L154.728 156.3L157.517 151.527L159.718 147.368L161.276 143.836L162.131 140.943L162.215 138.702L161.451 137.134L159.745 136.267L156.977 136.141L152.999 136.813L147.617 138.361L140.582 140.892L131.565 144.551L120.132 149.534L105.701 156.107L94.8481 160.086L109.34 148.501L120.667 139.219L129.435 131.752L136.092 125.738L140.971 120.903L144.323 117.037L146.336 113.979L147.152 111.6L146.881 109.8L145.604 108.495L143.384 107.617L140.272 107.106L136.309 106.91L131.535 106.98L125.987 107.272L119.712 107.738L112.759 108.333L105.195 109.009L97.0973 109.715L88.5644 110.399L79.712 111.006L70.6755 111.481L61.6082 111.77L52.6782 111.82L44.0635 111.584L35.9452 111.022L28.4994 110.103L21.8886 108.808L16.2528 107.131L11.7017 105.079L8.30838 102.671L6.10548 99.9392L5.0841 96.9252L5.1955 93.6775L6.35524 90.2489L8.44935 86.6934L11.3418 83.0634L14.8821 79.4072L18.9136 75.7677L23.2795 72.1803L27.8292 68.6733L32.4224 65.267L36.9317 61.9745L41.2449 58.8021L45.2651 55.7501L48.9106 52.8135L52.114 49.9834L54.8213 47.2472L56.9902 44.5897L58.5893 41.9937L59.5966 39.4405L59.9989 36.9106L59.7908 34.3839L58.9752 31.8403L57.5626 29.26L55.5723 26.624L53.0324 23.9147L49.9818 21.116L46.4705 18.2145L42.5615 15.2L38.3318 12.0662L33.8735 8.81155L29.2939 5.44042L24.7157 1.96365L20.2753 -1.60082L16.1205 -5.22727L12.4066 -8.88244L9.29099 -12.5258L6.92699 -16.1106L5.45604 -19.5854L5 -22.8966L5.65345 -25.9906L7.47708 -28.8172L10.4928 -31.3322L14.6811 -33.5007L19.9817 -35.2987L26.2958 -36.715L33.4924 -37.752L41.4151 -38.4248L49.8913 -38.7608L58.7405 -38.7971L67.7829 -38.5791L76.8466 -38.1575L85.7732 -37.5865L94.4214 -36.9211L102.669 -36.2163L110.413 -35.5252L117.568 -34.8989L124.065 -34.3863L129.85 -34.0342L134.875 -33.8883L139.1 -33.9943L142.488 -34.3996L144.997 -35.155L146.58 -36.3171L147.18 -37.9512L146.72 -40.1354L145.101 -42.9648L142.194 -46.5576L137.826 -51.064L131.767 -56.6765L123.714 -63.6461L113.258 -72.3038L99.8525 -83.0929L100.355 -85.5726L115.893 -78.4232L128.209 -72.9664L137.943 -68.9097L145.57 -66.0372L151.448 -64.1894L155.85 -63.2483L158.985 -63.1273L161.015 -63.7634L162.068 -65.1117L162.245 -67.1405L161.628 -69.8277L160.287 -73.1576L158.284 -77.118L155.676 -81.6968L152.52 -86.8795L148.875 -92.6466L144.808 -98.9697L140.391 -105.81L135.707 -113.114L130.851 -120.814L125.928 -128.823L121.052 -137.04L116.346 -145.343L111.937 -153.599L107.951 -161.663L104.509 -169.386L101.72 -176.622L99.6744 -183.231L98.4414 -189.092L98.0622 -194.107L98.5488 -198.206L99.8838 -201.353L102.022 -203.544L104.893 -204.81L108.407 -205.21L112.46 -204.831L116.941 -203.778L121.735 -202.169L126.73 -200.13L131.822 -197.79L136.915 -195.274L141.927 -192.699L146.787 -190.174L151.437 -187.798L155.832 -185.658L159.938 -183.829L163.732 -182.375L167.199 -181.349L170.332 -180.796L173.131 -180.752L175.601 -181.244L177.754 -182.292L179.604 -183.91L181.169 -186.101L182.472 -188.865L183.538 -192.191L184.397 -196.057L185.083 -200.434L185.632 -205.277L186.085 -210.529L186.487 -216.117L186.885 -221.951L187.332 -227.925L187.879 -233.913L188.581 -239.777L189.49 -245.361L190.657 -250.503L192.124 -255.036L193.93 -258.795L196.1 -261.626L198.648 -263.397L201.574 -264L204.864 -263.365L208.49 -261.46L212.409 -258.299L216.571 -253.939L220.914 -248.475L225.375 -242.042L229.886 -234.797L234.386 -226.921L238.814 -218.601L243.121 -210.027L247.263 -201.381L251.208 -192.834L254.932 -184.541L258.42 -176.637L261.667 -169.24L264.673 -162.449L267.443 -156.349L269.99 -151.012L272.328 -146.502L274.475 -142.878L276.449 -140.2L278.272 -138.534L279.967 -137.955L281.558 -138.555L283.069 -140.452L284.529 -143.795L285.97 -148.779L287.427 -155.657L288.944 -164.764L290.573 -176.543L292.383 -191.583L294.464 -210.683L296.691 -200.144L298.617 -183.279L300.323 -170.026L301.887 -159.706L303.366 -151.811L304.81 -145.958L306.257 -141.858L307.74 -139.292L309.289 -138.088L310.931 -138.116L312.69 -139.274L314.589 -141.477L316.651 -144.656L318.895 -148.75L321.34 -153.7L324.003 -159.444L326.895 -165.914L330.026 -173.033L333.399 -180.709L337.012 -188.832L340.854 -197.275L344.905 -205.894L349.138 -214.524L353.514 -222.989L357.986 -231.101L362.5 -238.671L366.993 -245.513L371.4 -251.459L375.657 -256.361L379.699 -260.104L383.471 -262.613L386.926 -263.854L390.029 -263.836L392.758 -262.612L395.108 -260.272L397.085 -256.938L398.71 -252.755L400.015 -247.883L401.041 -242.49L401.836 -236.74L402.45 -230.793L402.938 -224.795L403.353 -218.88L403.747 -213.162L404.17 -207.74L404.668 -202.693L405.283 -198.087L406.055 -193.972L407.019 -190.385L408.205 -187.351L409.642 -184.885L411.353 -182.993L413.359 -181.675L415.676 -180.919L418.317 -180.71L421.29 -181.023L424.598 -181.828L428.237 -183.084L432.196 -184.741L436.457 -186.742L440.99 -189.015L445.756 -191.48L450.703 -194.044L455.767 -196.603L460.871 -199.042L465.925 -201.241L470.829 -203.071L475.473 -204.405L479.745 -205.12L483.53 -205.104L486.721 -204.261L489.219 -202.518L490.945 -199.83L491.841 -196.183L491.876 -191.599L491.047 -186.131L489.383 -179.866L486.939 -172.913L483.796 -165.405L480.056 -157.485L475.833 -149.302L471.253 -141.004L466.443 -132.73L461.527 -124.608L456.625 -116.748L451.847 -109.246L447.292 -102.176L443.047 -95.6005L439.192 -89.5636L435.795 -84.0988L432.918 -79.2293L430.618 -74.9719L428.954 -71.3393L427.983 -68.3433L427.772 -65.9977L428.395 -64.321L429.944 -63.3399L432.533 -63.0925L436.307 -63.6326L441.45 -65.0346L448.202 -67.4004L456.878 -70.8683L467.892 -75.6249L481.798 -81.9231L497.831 -89.1681L482.766 -77.1603L470.98 -67.548L461.838 -59.8191L454.869 -53.5938L449.726 -48.5861L446.145 -44.5778L443.93 -41.4001L442.93 -38.9208L443.034 -37.0345L444.156 -35.6557L446.229 -34.7136L449.202 -34.1477L453.032 -33.9047L457.68 -33.936L463.107 -34.1952L469.27 -34.6369L476.119 -35.2148L483.591 -35.8812L491.609 -36.586L500.08 -37.2769L508.89 -37.8999L517.907 -38.3998L526.98 -38.7217L535.944 -38.8129L544.621 -38.6253L552.83 -38.1175L560.394 -37.2572L567.148 -36.0232L572.948 -34.407L577.677 -32.4133L581.258 -30.0601L583.651 -27.3774L584.859 -24.4052L584.923 -21.1912L583.923 -17.7878L581.969 -14.2489L579.194 -10.6274L575.746 -6.97244L571.783 -3.32766L567.46 0.270098L562.93 3.79147L558.334 7.21487L553.804 10.5261L549.453 13.7178L545.38 16.7888L541.67 19.7432L538.392 22.5895L535.603 25.3397L533.346 28.0086L531.654 30.6132L530.551 33.1719L530.052 35.7042L530.021 36.5085Z" stroke="url(#paint0_linear_1_55)" stroke-width="6"/>
<path d="M448.625 36.5055V36.5055ZM448.625 36.5055L448.824 38.1502L449.418 39.808L450.4 41.4917L451.755 43.2134L453.465 44.9847L455.504 46.8156L457.836 48.7146L460.421 50.6879L463.205 52.7393L466.128 54.8691L469.118 57.0738L472.093 59.3457L474.964 61.6723L477.633 64.0362L479.998 66.4148L481.957 68.7812L483.41 71.1043L484.269 73.3504L484.454 75.4844L483.909 77.4717L482.597 79.2801L480.509 80.8818L477.66 82.255L474.096 83.3855L469.883 84.2673L465.111 84.9033L459.883 85.3048L454.312 85.4905L448.517 85.4857L442.615 85.3205L436.716 85.0284L430.922 84.6446L425.322 84.2053L419.996 83.7459L415.007 83.3008L410.41 82.9031L406.247 82.5842L402.554 82.3745L399.361 82.3037L396.693 82.4016L394.574 82.6993L393.033 83.2302L392.1 84.0321L391.816 85.1486L392.231 86.632L393.413 88.5462L395.451 90.9712L398.462 94.0083L402.603 97.7883L408.081 102.481L415.174 108.313L424.258 115.586L420.556 115.105L410.798 110.645L403.065 107.251L396.959 104.743L392.184 102.986L388.517 101.882L385.788 101.359L383.866 101.361L382.65 101.85L382.058 102.799L382.029 104.188L382.509 106.003L383.454 108.235L384.824 110.877L386.584 113.919L388.694 117.352L391.116 121.163L393.806 125.332L396.716 129.833L399.791 134.629L402.967 139.675L406.176 144.912L409.341 150.272L412.382 155.675L415.217 161.032L417.764 166.25L419.944 171.23L421.688 175.879L422.939 180.106L423.655 183.835L423.812 187.005L423.406 189.575L422.45 191.522L420.977 192.85L419.035 193.581L416.685 193.757L413.994 193.435L411.036 192.687L407.887 191.59L404.617 190.227L401.294 188.681L397.98 187.033L394.727 185.358L391.579 183.727L388.574 182.202L385.738 180.839L383.094 179.685L380.655 178.781L378.43 178.161L376.423 177.853L374.633 177.879L373.057 178.256L371.686 178.996L370.511 180.108L369.519 181.593L368.696 183.45L368.024 185.671L367.484 188.241L367.053 191.139L366.707 194.335L366.419 197.79L366.159 201.455L365.897 205.27L365.598 209.163L365.228 213.053L364.751 216.845L364.134 220.44L363.344 223.729L362.354 226.605L361.14 228.961L359.688 230.699L357.988 231.734L356.042 232L353.862 231.456L351.466 230.085L348.884 227.902L346.151 224.945L343.305 221.284L340.39 217.007L337.449 212.22L334.521 207.042L331.646 201.595L328.855 196.001L326.175 190.38L323.626 184.839L321.223 179.479L318.974 174.384L316.884 169.63L314.95 165.28L313.168 161.388L311.531 157.999L310.028 155.154L308.648 152.891L307.378 151.251L306.204 150.276L305.111 150.017L304.084 150.537L303.106 151.914L302.157 154.249L301.219 157.676L300.265 162.365L299.267 168.546L298.19 176.518L296.986 186.684L295.596 199.591L294.17 188.54L292.941 177.978L291.847 169.686L290.839 163.243L289.881 158.333L288.941 154.718L287.996 152.218L287.024 150.696L286.006 150.046L284.925 150.186L283.765 151.05L282.511 152.588L281.149 154.753L279.667 157.508L278.051 160.813L276.293 164.629L274.384 168.909L272.318 173.602L270.095 178.647L267.716 183.971L265.19 189.489L262.529 195.105L259.754 200.71L256.89 206.189L253.969 211.419L251.027 216.276L248.105 220.642L245.245 224.407L242.491 227.481L239.882 229.791L237.455 231.293L235.239 231.968L233.255 231.829L231.516 230.912L230.024 229.281L228.773 227.018L227.749 224.218L226.929 220.987L226.286 217.434L225.79 213.666L225.405 209.785L225.096 205.887L224.83 202.054L224.573 198.361L224.291 194.869L223.957 191.629L223.541 188.681L223.019 186.057L222.37 183.78L221.572 181.864L220.608 180.319L219.463 179.148L218.124 178.349L216.581 177.915L214.826 177.834L212.853 178.091L210.663 178.663L208.258 179.523L205.646 180.64L202.839 181.973L199.859 183.476L196.732 185.094L193.492 186.766L190.184 188.423L186.859 189.991L183.577 191.389L180.403 192.533L177.41 193.343L174.672 193.737L172.262 193.645L170.251 193.006L168.7 191.775L167.659 189.927L167.164 187.456L167.231 184.379L167.86 180.735L169.028 176.582L170.697 171.995L172.812 167.062L175.305 161.875L178.099 156.533L181.113 151.131L184.265 145.759L187.472 140.498L190.658 135.417L193.753 130.578L196.693 126.028L199.422 121.804L201.889 117.934L204.052 114.44L205.87 111.335L207.305 108.629L208.32 106.331L208.877 104.449L208.931 102.991L208.434 101.971L207.322 101.407L205.518 101.325L202.926 101.762L199.418 102.769L194.833 104.415L188.957 106.796L181.506 110.038L172.102 114.314L165.029 116.903L174.473 109.366L181.855 103.327L187.569 98.4695L191.908 94.5567L195.087 91.4109L197.271 88.8959L198.583 86.9062L199.115 85.3588L198.939 84.1876L198.106 83.3388L196.66 82.7673L194.631 82.4348L192.049 82.3072L188.938 82.3532L185.323 82.5427L181.233 82.8462L176.702 83.2335L171.772 83.6732L166.495 84.1326L160.934 84.5775L155.165 84.9724L149.277 85.2816L143.367 85.4693L137.548 85.5018L131.934 85.3482L126.643 84.9826L121.791 84.3848L117.483 83.5426L113.81 82.4515L110.844 81.1163L108.633 79.5497L107.197 77.7725L106.532 75.8116L106.604 73.6987L107.36 71.4681L108.725 69.1549L110.61 66.7933L112.917 64.4147L115.544 62.0469L118.389 59.713L121.354 57.4314L124.347 55.2153L127.286 53.0733L130.097 51.0094L132.717 49.0238L135.093 47.1133L137.18 45.2721L138.945 43.492L140.358 41.763L141.4 40.0741L142.057 38.4131L142.319 36.7671L142.183 35.1233L141.652 33.4685L140.731 31.7898L139.434 30.0749L137.779 28.3122L135.791 26.4914L133.502 24.6038L130.955 22.6426L128.199 20.6038L125.293 18.4864L122.309 16.2932L119.325 14.0313L116.431 11.7123L113.724 9.35298L111.304 6.97499L109.273 4.60471L107.733 2.27251L106.774 0.0118284L106.477 -2.14238L106.903 -4.1553L108.091 -5.99421L110.056 -7.63045L112.786 -9.04119L116.24 -10.2109L120.355 -11.1324L125.045 -11.807L130.208 -12.2448L135.732 -12.4633L141.499 -12.487L147.391 -12.3451L153.298 -12.0709L159.115 -11.6993L164.751 -11.2665L170.126 -10.8079L175.173 -10.3583L179.835 -9.95088L184.07 -9.61738L187.839 -9.38828L191.114 -9.29337L193.868 -9.36236L196.075 -9.62605L197.711 -10.1175L198.743 -10.8735L199.133 -11.9366L198.833 -13.3576L197.779 -15.1984L195.884 -17.5358L193.037 -20.4676L189.089 -24.119L183.841 -28.6533L177.027 -34.2858L168.291 -41.305L168.618 -42.9183L178.744 -38.267L186.771 -34.7169L193.114 -32.0777L198.084 -30.2089L201.915 -29.0067L204.783 -28.3945L206.826 -28.3157L208.149 -28.7296L208.836 -29.6068L208.951 -30.9267L208.549 -32.6749L207.675 -34.8413L206.37 -37.4178L204.67 -40.3967L202.613 -43.7685L200.238 -47.5205L197.587 -51.6342L194.709 -56.0842L191.657 -60.8363L188.492 -65.8456L185.284 -71.0565L182.106 -76.4019L179.039 -81.8037L176.166 -87.1747L173.568 -92.4212L171.325 -97.446L169.508 -102.153L168.175 -106.453L167.371 -110.266L167.124 -113.529L167.441 -116.196L168.311 -118.243L169.704 -119.668L171.575 -120.492L173.865 -120.752L176.507 -120.506L179.427 -119.82L182.551 -118.774L185.806 -117.448L189.125 -115.925L192.444 -114.288L195.71 -112.613L198.877 -110.97L201.908 -109.425L204.772 -108.032L207.448 -106.842L209.92 -105.896L212.179 -105.229L214.221 -104.869L216.045 -104.84L217.655 -105.16L219.058 -105.842L220.264 -106.895L221.283 -108.32L222.132 -110.119L222.827 -112.282L223.387 -114.798L223.834 -117.645L224.192 -120.796L224.487 -124.213L224.749 -127.848L225.009 -131.644L225.3 -135.53L225.656 -139.426L226.114 -143.241L226.706 -146.874L227.467 -150.219L228.423 -153.168L229.6 -155.614L231.014 -157.456L232.674 -158.608L234.581 -159L236.725 -158.587L239.088 -157.348L241.642 -155.291L244.354 -152.454L247.185 -148.9L250.092 -144.714L253.032 -140.001L255.964 -134.877L258.85 -129.464L261.657 -123.886L264.356 -118.261L266.927 -112.701L269.354 -107.306L271.627 -102.163L273.743 -97.3509L275.702 -92.9328L277.507 -88.9642L279.167 -85.4919L280.691 -82.5576L282.09 -80.2L283.376 -78.4581L284.564 -77.374L285.669 -76.9973L286.705 -77.3879L287.69 -78.622L288.642 -80.7969L289.581 -84.0392L290.53 -88.5141L291.519 -94.439L292.581 -102.102L293.76 -111.887L295.116 -124.313L296.567 -117.456L297.823 -106.484L298.935 -97.8625L299.953 -91.1484L300.918 -86.0116L301.858 -82.2038L302.801 -79.5368L303.768 -77.8669L304.778 -77.0839L305.847 -77.1024L306.994 -77.8552L308.232 -79.2884L309.575 -81.3569L311.038 -84.0204L312.631 -87.2406L314.366 -90.9775L316.251 -95.1872L318.291 -99.8187L320.49 -104.812L322.844 -110.097L325.348 -115.59L327.988 -121.197L330.746 -126.812L333.598 -132.319L336.513 -137.597L339.454 -142.521L342.382 -146.973L345.254 -150.841L348.028 -154.03L350.663 -156.465L353.121 -158.098L355.372 -158.905L357.394 -158.893L359.173 -158.097L360.704 -156.575L361.993 -154.406L363.052 -151.684L363.902 -148.515L364.571 -145.006L365.089 -141.265L365.489 -137.396L365.807 -133.494L366.078 -129.646L366.335 -125.926L366.61 -122.398L366.934 -119.115L367.336 -116.118L367.839 -113.441L368.467 -111.107L369.24 -109.133L370.176 -107.529L371.291 -106.299L372.598 -105.441L374.108 -104.949L375.83 -104.813L377.767 -105.017L379.923 -105.54L382.294 -106.357L384.874 -107.436L387.651 -108.737L390.605 -110.216L393.711 -111.82L396.935 -113.488L400.235 -115.152L403.561 -116.74L406.855 -118.17L410.051 -119.36L413.077 -120.229L415.861 -120.694L418.328 -120.684L420.407 -120.135L422.035 -119.001L423.16 -117.252L423.744 -114.879L423.766 -111.897L423.227 -108.34L422.142 -104.264L420.549 -99.7404L418.501 -94.8556L416.064 -89.7029L413.312 -84.3794L410.327 -78.9809L407.192 -73.5983L403.989 -68.3141L400.794 -63.2008L397.68 -58.3196L394.712 -53.7203L391.946 -49.4422L389.433 -45.5148L387.219 -41.9594L385.344 -38.7915L383.846 -36.0217L382.761 -33.6584L382.129 -31.7092L381.991 -30.1832L382.397 -29.0924L383.406 -28.4541L385.094 -28.2931L387.553 -28.6445L390.905 -29.5566L395.305 -31.0958L400.959 -33.3519L408.137 -36.4465L417.199 -40.544L427.647 -45.2574L417.83 -37.4454L410.149 -31.1918L404.191 -26.1635L399.65 -22.1134L396.298 -18.8555L393.965 -16.2478L392.521 -14.1805L391.869 -12.5675L391.937 -11.3402L392.668 -10.4432L394.019 -9.83029L395.957 -9.46211L398.453 -9.30404L401.482 -9.32438L405.018 -9.49306L409.035 -9.78042L413.498 -10.1564L418.367 -10.5899L423.593 -11.0484L429.113 -11.498L434.854 -11.9033L440.731 -12.2285L446.644 -12.4379L452.485 -12.4972L458.14 -12.3752L463.49 -12.0448L468.419 -11.4851L472.821 -10.6823L476.6 -9.63081L479.682 -8.33376L482.016 -6.80284L483.575 -5.05751L484.362 -3.12385L484.404 -1.03289L483.752 1.18131L482.479 3.48364L480.671 5.83974L478.424 8.2176L475.841 10.5888L473.024 12.9295L470.071 15.2204L467.077 17.4476L464.124 19.6018L461.289 21.6783L458.634 23.6762L456.217 25.5983L454.081 27.4501L452.263 29.2393L450.792 30.9757L449.689 32.6702L448.971 34.3348L448.646 35.9823L448.625 36.5055Z" stroke="url(#paint1_linear_1_55)" stroke-width="6"/>
</g>
<defs>
<linearGradient id="paint0_linear_1_55" x1="295" y1="-264" x2="295" y2="337" gradientUnits="userSpaceOnUse">
<stop stop-color="white"/>
<stop offset="1" stop-color="#858585" stop-opacity="0"/>
</linearGradient>
<linearGradient id="paint1_linear_1_55" x1="295.466" y1="-159" x2="295.466" y2="232" gradientUnits="userSpaceOnUse">
<stop stop-color="white"/>
<stop offset="1" stop-color="#858585" stop-opacity="0"/>
</linearGradient>
</defs>
</svg>
