<svg width="317" height="337" viewBox="0 0 317 337" fill="none" xmlns="http://www.w3.org/2000/svg">
<mask id="mask0_1_61" style="mask-type:alpha" maskUnits="userSpaceOnUse" x="-266" y="0" width="583" height="337">
<rect width="582.951" height="337" transform="matrix(-1 0 0 1 316.951 0)" fill="#D9D9D9"/>
</mask>
<g mask="url(#mask0_1_61)">
<path d="M-215.767 36.5085V36.5085ZM-215.767 36.5085L-216.074 39.0365L-216.99 41.5847L-218.504 44.1726L-220.594 46.8191L-223.232 49.5417L-226.375 52.3559L-229.973 55.2748L-233.959 58.308L-238.253 61.4611L-242.761 64.7348L-247.372 68.1236L-251.961 71.6158L-256.389 75.192L-260.505 78.8254L-264.152 82.4816L-267.173 86.1189L-269.416 89.6897L-270.739 93.1421L-271.025 96.4223L-270.184 99.4769L-268.161 102.257L-264.94 104.719L-260.547 106.829L-255.05 108.567L-248.553 109.922L-241.192 110.9L-233.129 111.517L-224.537 111.803L-215.6 111.795L-206.497 111.541L-197.399 111.092L-188.463 110.502L-179.827 109.827L-171.612 109.121L-163.918 108.437L-156.827 107.825L-150.407 107.335L-144.712 107.013L-139.787 106.904L-135.671 107.055L-132.404 107.512L-130.027 108.328L-128.589 109.561L-128.15 111.277L-128.791 113.557L-130.614 116.499L-133.757 120.227L-138.401 124.895L-144.787 130.705L-153.235 137.919L-164.175 146.883L-178.185 158.062L-172.477 157.323L-157.427 150.466L-145.499 145.25L-136.082 141.395L-128.718 138.695L-123.063 136.998L-118.854 136.193L-115.89 136.196L-114.013 136.948L-113.101 138.407L-113.056 140.542L-113.796 143.332L-115.254 146.763L-117.367 150.823L-120.08 155.499L-123.335 160.777L-127.07 166.634L-131.22 173.043L-135.708 179.961L-140.449 187.333L-145.348 195.088L-150.297 203.138L-155.179 211.377L-159.87 219.681L-164.242 227.917L-168.169 235.937L-171.531 243.592L-174.221 250.737L-176.151 257.234L-177.255 262.967L-177.498 267.84L-176.871 271.789L-175.397 274.783L-173.126 276.823L-170.131 277.947L-166.505 278.217L-162.355 277.723L-157.794 276.572L-152.936 274.887L-147.893 272.792L-142.769 270.415L-137.657 267.882L-132.64 265.308L-127.785 262.8L-123.15 260.457L-118.776 258.361L-114.698 256.588L-110.937 255.198L-107.505 254.245L-104.41 253.771L-101.65 253.811L-99.2183 254.39L-97.1042 255.528L-95.2921 257.237L-93.7627 259.52L-92.493 262.375L-91.4565 265.788L-90.6229 269.738L-89.9582 274.193L-89.4247 279.105L-88.9806 284.416L-88.5806 290.049L-88.1758 295.913L-87.7145 301.898L-87.1432 307.876L-86.408 313.706L-85.4562 319.231L-84.2385 324.287L-82.7114 328.708L-80.8398 332.329L-78.5991 335L-75.9774 336.59L-72.9768 337L-69.6139 336.163L-65.9196 334.057L-61.9374 330.7L-57.7213 326.156L-53.3327 320.529L-48.837 313.955L-44.3003 306.597L-39.7856 298.637L-35.3509 290.264L-31.046 281.667L-26.9124 273.026L-22.9814 264.51L-19.2754 256.27L-15.8076 248.44L-12.5831 241.133L-9.60048 234.446L-6.85236 228.463L-4.32693 223.254L-2.00895 218.881L0.119472 215.403L2.07823 212.882L3.88876 211.384L5.57387 210.986L7.15785 211.784L8.66675 213.9L10.1291 217.49L11.5772 222.757L13.0481 229.966L14.5865 239.465L16.2482 251.719L18.1043 267.346L20.2493 287.184L22.4483 270.198L24.3434 253.963L26.0307 241.218L27.5848 231.315L29.0632 223.767L30.5122 218.211L31.97 214.369L33.4696 212.03L35.0398 211.03L36.7071 211.245L38.4961 212.573L40.4298 214.936L42.5298 218.265L44.8163 222.5L47.3076 227.58L50.0194 233.444L52.9641 240.024L56.1497 247.238L59.579 254.992L63.2477 263.175L67.1441 271.657L71.2473 280.289L75.5274 288.905L79.9446 297.327L84.4502 305.365L88.9876 312.831L93.4941 319.541L97.9042 325.33L102.152 330.054L106.175 333.605L109.919 335.913L113.337 336.951L116.397 336.737L119.079 335.328L121.38 332.821L123.309 329.342L124.889 325.038L126.153 320.072L127.144 314.61L127.911 308.819L128.504 302.854L128.979 296.862L129.39 290.971L129.787 285.294L130.221 279.926L130.737 274.946L131.379 270.415L132.183 266.382L133.185 262.881L134.416 259.937L135.902 257.562L137.668 255.762L139.733 254.534L142.113 253.867L144.82 253.742L147.862 254.137L151.24 255.016L154.949 256.339L158.978 258.055L163.307 260.104L167.903 262.414L172.726 264.901L177.722 267.471L182.824 270.019L187.952 272.429L193.015 274.577L197.909 276.337L202.525 277.58L206.749 278.187L210.465 278.045L213.567 277.062L215.959 275.171L217.564 272.33L218.328 268.532L218.224 263.802L217.255 258.201L215.453 251.818L212.879 244.768L209.617 237.184L205.773 229.212L201.463 221.001L196.814 212.698L191.954 204.441L187.008 196.353L182.094 188.544L177.321 181.106L172.786 174.112L168.577 167.619L164.771 161.671L161.436 156.3L158.633 151.527L156.42 147.368L154.854 143.836L153.995 140.943L153.911 138.702L154.678 137.134L156.393 136.267L159.175 136.141L163.173 136.813L168.582 138.361L175.654 140.892L184.717 144.551L196.208 149.534L210.712 156.107L221.62 160.086L207.055 148.501L195.67 139.219L186.857 131.752L180.166 125.738L175.263 120.903L171.894 117.037L169.871 113.979L169.05 111.6L169.322 109.8L170.606 108.495L172.837 107.617L175.965 107.106L179.948 106.91L184.747 106.98L190.322 107.272L196.63 107.738L203.618 108.333L211.221 109.009L219.36 109.715L227.936 110.399L236.833 111.006L245.916 111.481L255.029 111.77L264.005 111.82L272.663 111.584L280.823 111.022L288.306 110.103L294.951 108.808L300.615 107.131L305.19 105.079L308.6 102.671L310.814 99.9392L311.841 96.9252L311.729 93.6775L310.563 90.2489L308.458 86.6934L305.551 83.0634L301.993 79.4072L297.941 75.7677L293.553 72.1803L288.98 68.6733L284.364 65.267L279.831 61.9745L275.496 58.8021L271.455 55.7501L267.791 52.8135L264.572 49.9834L261.851 47.2472L259.671 44.5897L258.063 41.9937L257.051 39.4405L256.647 36.9106L256.856 34.3839L257.676 31.8403L259.095 29.26L261.096 26.624L263.649 23.9147L266.715 21.116L270.244 18.2145L274.173 15.2L278.424 12.0662L282.905 8.81155L287.508 5.44042L292.109 1.96365L296.572 -1.60082L300.748 -5.22727L304.481 -8.88244L307.613 -12.5258L309.989 -16.1106L311.467 -19.5854L311.925 -22.8966L311.269 -25.9906L309.436 -28.8172L306.405 -31.3322L302.195 -33.5007L296.867 -35.2987L290.521 -36.715L283.288 -37.752L275.325 -38.4248L266.806 -38.7608L257.911 -38.7971L248.823 -38.5791L239.713 -38.1575L230.741 -37.5865L222.049 -36.9211L213.76 -36.2163L205.977 -35.5252L198.785 -34.8989L192.254 -34.3863L186.441 -34.0342L181.39 -33.8883L177.143 -33.9943L173.738 -34.3996L171.216 -35.155L169.625 -36.3171L169.022 -37.9512L169.485 -40.1354L171.111 -42.9648L174.033 -46.5576L178.424 -51.064L184.513 -56.6765L192.608 -63.6461L203.116 -72.3038L216.59 -83.0929L216.085 -85.5726L200.468 -78.4232L188.089 -72.9664L178.306 -68.9097L170.641 -66.0372L164.733 -64.1894L160.308 -63.2483L157.157 -63.1273L155.117 -63.7634L154.058 -65.1117L153.881 -67.1405L154.501 -69.8277L155.848 -73.1576L157.861 -77.118L160.483 -81.6968L163.655 -86.8795L167.318 -92.6466L171.406 -98.9697L175.846 -105.81L180.553 -113.114L185.434 -120.814L190.382 -128.823L195.283 -137.04L200.013 -145.343L204.444 -153.599L208.451 -161.663L211.91 -169.386L214.714 -176.622L216.769 -183.231L218.009 -189.092L218.39 -194.107L217.901 -198.206L216.559 -201.353L214.41 -203.544L211.525 -204.81L207.993 -205.21L203.919 -204.831L199.415 -203.778L194.597 -202.169L189.576 -200.13L184.459 -197.79L179.339 -195.274L174.302 -192.699L169.417 -190.174L164.743 -187.798L160.326 -185.658L156.199 -183.829L152.386 -182.375L148.901 -181.349L145.752 -180.796L142.939 -180.752L140.456 -181.244L138.292 -182.292L136.433 -183.91L134.86 -186.101L133.551 -188.865L132.479 -192.191L131.615 -196.057L130.926 -200.434L130.375 -205.277L129.919 -210.529L129.515 -216.117L129.115 -221.951L128.666 -227.925L128.116 -233.913L127.41 -239.777L126.496 -245.361L125.324 -250.503L123.849 -255.036L122.034 -258.795L119.853 -261.626L117.293 -263.397L114.352 -264L111.045 -263.365L107.401 -261.46L103.461 -258.299L99.278 -253.939L94.9125 -248.475L90.4295 -242.042L85.8949 -234.797L81.3728 -226.921L76.9217 -218.601L72.5932 -210.027L68.4299 -201.381L64.4649 -192.834L60.722 -184.541L57.2157 -176.637L53.9524 -169.24L50.9316 -162.449L48.1468 -156.349L45.5869 -151.012L43.237 -146.502L41.0797 -142.878L39.0953 -140.2L37.2626 -138.534L35.5591 -137.955L33.9607 -138.555L32.4417 -140.452L30.974 -143.795L29.526 -148.779L28.0615 -155.657L26.5372 -164.764L24.8994 -176.543L23.0799 -191.583L20.9885 -210.683L18.7508 -200.144L16.8143 -183.279L15.0994 -170.026L13.5284 -159.706L12.0412 -151.811L10.5903 -145.958L9.13616 -141.858L7.6453 -139.292L6.08818 -138.088L4.43799 -138.116L2.66996 -139.274L0.760815 -141.477L-1.31133 -144.656L-3.56687 -148.75L-6.02442 -153.7L-8.70016 -159.444L-11.6071 -165.914L-14.754 -173.033L-18.1446 -180.709L-21.7757 -188.832L-25.637 -197.275L-29.7091 -205.894L-33.9634 -214.524L-38.3618 -222.989L-42.8569 -231.101L-47.3933 -238.671L-51.9091 -245.513L-56.339 -251.459L-60.617 -256.361L-64.68 -260.104L-68.4713 -262.613L-71.9437 -263.854L-75.0622 -263.836L-77.8055 -262.612L-80.167 -260.272L-82.154 -256.938L-83.7875 -252.755L-85.0994 -247.883L-86.1308 -242.49L-86.9294 -236.74L-87.5471 -230.793L-88.0375 -224.795L-88.4546 -218.88L-88.8507 -213.162L-89.2756 -207.74L-89.7759 -202.693L-90.3945 -198.087L-91.1705 -193.972L-92.1389 -190.385L-93.3313 -187.351L-94.7753 -184.885L-96.495 -182.993L-98.5111 -181.675L-100.84 -180.919L-103.495 -180.71L-106.483 -181.023L-109.807 -181.828L-113.465 -183.084L-117.444 -184.741L-121.726 -186.742L-126.283 -189.015L-131.073 -191.48L-136.045 -194.044L-141.135 -196.603L-146.265 -199.042L-151.345 -201.241L-156.273 -203.071L-160.941 -204.405L-165.235 -205.12L-169.039 -205.104L-172.246 -204.261L-174.757 -202.518L-176.492 -199.83L-177.392 -196.183L-177.427 -191.599L-176.594 -186.131L-174.922 -179.866L-172.466 -172.913L-169.307 -165.405L-165.547 -157.485L-161.303 -149.302L-156.7 -141.004L-151.865 -132.73L-146.924 -124.608L-141.998 -116.748L-137.195 -109.246L-132.616 -102.176L-128.351 -95.6005L-124.476 -89.5636L-121.061 -84.0988L-118.169 -79.2293L-115.858 -74.9719L-114.186 -71.3393L-113.21 -68.3433L-112.997 -65.9977L-113.623 -64.321L-115.18 -63.3399L-117.783 -63.0925L-121.576 -63.6326L-126.745 -65.0346L-133.532 -67.4004L-142.252 -70.8683L-153.321 -75.6249L-167.298 -81.9231L-183.413 -89.1681L-168.271 -77.1603L-156.425 -67.548L-147.236 -59.8191L-140.233 -53.5938L-135.063 -48.5861L-131.464 -44.5778L-129.237 -41.4001L-128.233 -38.9208L-128.337 -37.0345L-129.465 -35.6557L-131.549 -34.7136L-134.537 -34.1477L-138.386 -33.9047L-143.058 -33.936L-148.512 -34.1952L-154.707 -34.6369L-161.59 -35.2148L-169.1 -35.8812L-177.159 -36.586L-185.673 -37.2769L-194.528 -37.8999L-203.591 -38.3998L-212.71 -38.7217L-221.72 -38.8129L-230.441 -38.6253L-238.692 -38.1175L-246.295 -37.2572L-253.083 -36.0232L-258.912 -34.407L-263.666 -32.4133L-267.265 -30.0601L-269.67 -27.3774L-270.883 -24.4052L-270.948 -21.1912L-269.943 -17.7878L-267.979 -14.2489L-265.19 -10.6274L-261.725 -6.97244L-257.741 -3.32766L-253.396 0.270098L-248.843 3.79147L-244.224 7.21487L-239.671 10.5261L-235.297 13.7178L-231.204 16.7888L-227.475 19.7432L-224.18 22.5895L-221.377 25.3397L-219.108 28.0086L-217.408 30.6132L-216.3 33.1719L-215.798 35.7042L-215.767 36.5085Z" stroke="url(#paint0_linear_1_61)" stroke-width="6"/>
<path d="M-133.957 36.5055V36.5055ZM-133.957 36.5055L-134.157 38.1502L-134.754 39.808L-135.74 41.4917L-137.103 43.2134L-138.822 44.9847L-140.87 46.8156L-143.215 48.7146L-145.812 50.6879L-148.611 52.7393L-151.549 54.8691L-154.554 57.0738L-157.544 59.3457L-160.43 61.6723L-163.112 64.0362L-165.489 66.4148L-167.458 68.7812L-168.919 71.1043L-169.782 73.3504L-169.968 75.4844L-169.42 77.4717L-168.102 79.2801L-166.002 80.8818L-163.14 82.255L-159.557 83.3855L-155.323 84.2673L-150.526 84.9033L-145.271 85.3048L-139.673 85.4905L-133.848 85.4857L-127.916 85.3205L-121.987 85.0284L-116.163 84.6446L-110.535 84.2053L-105.182 83.7459L-100.168 83.3008L-95.5468 82.9031L-91.363 82.5842L-87.6515 82.3745L-84.4418 82.3037L-81.7599 82.4016L-79.6309 82.6993L-78.0817 83.2302L-77.1443 84.0321L-76.8586 85.1486L-77.2759 86.632L-78.464 88.5462L-80.5122 90.9712L-83.5388 94.0083L-87.7005 97.7883L-93.2061 102.481L-100.335 108.313L-109.465 115.586L-105.745 115.105L-95.9375 110.645L-88.1646 107.251L-82.0274 104.743L-77.2284 102.986L-73.543 101.882L-70.8001 101.359L-68.8684 101.361L-67.6456 101.85L-67.0514 102.799L-67.0218 104.188L-67.5041 106.003L-68.4539 108.235L-69.8314 110.877L-71.5995 113.919L-73.7204 117.352L-76.1548 121.163L-78.8589 125.332L-81.7837 129.833L-84.8737 134.629L-88.0661 139.675L-91.2911 144.912L-94.4726 150.272L-97.5297 155.675L-100.379 161.032L-102.938 166.25L-105.129 171.23L-106.882 175.879L-108.14 180.106L-108.86 183.835L-109.018 187.005L-108.609 189.575L-107.649 191.522L-106.168 192.85L-104.217 193.581L-101.854 193.757L-99.1493 193.435L-96.1768 192.687L-93.011 191.59L-89.7246 190.227L-86.3853 188.681L-83.0541 187.033L-79.7843 185.358L-76.6206 183.727L-73.5996 182.202L-70.7497 180.839L-68.0918 179.685L-65.6406 178.781L-63.4045 178.161L-61.3873 177.853L-59.5885 177.879L-58.0039 178.256L-56.6262 178.996L-55.4453 180.108L-54.4486 181.593L-53.6212 183.45L-52.9457 185.671L-52.4024 188.241L-51.9693 191.139L-51.6216 194.335L-51.3322 197.79L-51.0715 201.455L-50.8077 205.27L-50.5071 209.163L-50.1348 213.053L-49.6557 216.845L-49.0354 220.44L-48.2418 223.729L-47.2467 226.605L-46.027 228.961L-44.5667 230.699L-42.8582 231.734L-40.9027 232L-38.7112 231.456L-36.3037 230.085L-33.7085 227.902L-30.961 224.945L-28.101 221.284L-25.1712 217.007L-22.2147 212.22L-19.2726 207.042L-16.3825 201.595L-13.5771 196.001L-10.8832 190.38L-8.3215 184.839L-5.90635 179.479L-3.64641 174.384L-1.54509 169.63L0.398666 165.28L2.18957 161.388L3.83536 157.999L5.34595 155.154L6.73302 152.891L8.00951 151.251L9.18941 150.276L10.2876 150.017L11.3198 150.537L12.3032 151.914L13.2562 154.249L14.1998 157.676L15.1584 162.365L16.161 168.546L17.2438 176.518L18.4535 186.684L19.8513 199.591L21.2844 188.54L22.5194 177.978L23.619 169.686L24.6317 163.243L25.5952 158.333L26.5395 154.718L27.4896 152.218L28.4668 150.696L29.4901 150.046L30.5766 150.186L31.7425 151.05L33.0027 152.588L34.3712 154.753L35.8613 157.508L37.4848 160.813L39.2521 164.629L41.1711 168.909L43.2471 173.602L45.4819 178.647L47.8728 183.971L50.412 189.489L53.086 195.105L55.8753 200.71L58.7539 206.189L61.6901 211.419L64.647 216.276L67.5839 220.642L70.4579 224.407L73.2262 227.481L75.8481 229.791L78.2876 231.293L80.5151 231.968L82.5091 231.829L84.2573 230.912L85.7568 229.281L87.014 227.018L88.0435 224.218L88.8674 220.987L89.5132 217.434L90.0126 213.666L90.3995 209.785L90.7092 205.887L90.9766 202.054L91.2356 198.361L91.5183 194.869L91.8549 191.629L92.2727 188.681L92.7969 186.057L93.4499 183.78L94.252 181.864L95.2206 180.319L96.3713 179.148L97.7169 178.349L99.268 177.915L101.032 177.834L103.015 178.091L105.216 178.663L107.633 179.523L110.259 180.64L113.08 181.973L116.075 183.476L119.218 185.094L122.474 186.766L125.799 188.423L129.141 189.991L132.44 191.389L135.63 192.533L138.638 193.343L141.39 193.737L143.812 193.645L145.834 193.006L147.393 191.775L148.439 189.927L148.936 187.456L148.869 184.379L148.237 180.735L147.063 176.582L145.385 171.995L143.26 167.062L140.754 161.875L137.946 156.533L134.916 151.131L131.749 145.759L128.526 140.498L125.323 135.417L122.212 130.578L119.257 126.028L116.515 121.804L114.034 117.934L111.861 114.44L110.034 111.335L108.592 108.629L107.571 106.331L107.012 104.449L106.956 102.991L107.457 101.971L108.575 101.407L110.387 101.325L112.993 101.762L116.518 102.769L121.126 104.415L127.032 106.796L134.521 110.038L143.973 114.314L151.082 116.903L141.59 109.366L134.17 103.327L128.427 98.4695L124.067 94.5567L120.871 91.4109L118.676 88.8959L117.357 86.9062L116.822 85.3588L117 84.1876L117.837 83.3388L119.291 82.7673L121.329 82.4348L123.925 82.3072L127.052 82.3532L130.685 82.5427L134.796 82.8462L139.35 83.2335L144.305 83.6732L149.609 84.1326L155.198 84.5775L160.996 84.9724L166.915 85.2816L172.854 85.4693L178.703 85.5018L184.346 85.3482L189.663 84.9826L194.54 84.3848L198.87 83.5426L202.562 82.4515L205.543 81.1163L207.765 79.5497L209.208 77.7725L209.877 75.8116L209.804 73.6987L209.045 71.4681L207.673 69.1549L205.779 66.7933L203.46 64.4147L200.819 62.0469L197.959 59.713L194.979 57.4314L191.971 55.2153L189.017 53.0733L186.192 51.0094L183.559 49.0238L181.171 47.1133L179.073 45.2721L177.299 43.492L175.879 41.763L174.831 40.0741L174.172 38.4131L173.908 36.7671L174.044 35.1233L174.579 33.4685L175.504 31.7898L176.807 30.0749L178.471 28.3122L180.469 26.4914L182.769 24.6038L185.33 22.6426L188.1 20.6038L191.02 18.4864L194.02 16.2932L197.019 14.0313L199.927 11.7123L202.648 9.35298L205.081 6.97499L207.122 4.60471L208.67 2.27251L209.634 0.0118284L209.932 -2.14238L209.504 -4.1553L208.31 -5.99421L206.335 -7.63045L203.591 -9.04119L200.119 -10.2109L195.984 -11.1324L191.27 -11.807L186.08 -12.2448L180.529 -12.4633L174.732 -12.487L168.81 -12.3451L162.873 -12.0709L157.026 -11.6993L151.361 -11.2665L145.959 -10.8079L140.887 -10.3583L136.2 -9.95088L131.945 -9.61738L128.156 -9.38828L124.864 -9.29337L122.097 -9.36236L119.878 -9.62605L118.234 -10.1175L117.197 -10.8735L116.804 -11.9366L117.106 -13.3576L118.166 -15.1984L120.07 -17.5358L122.931 -20.4676L126.9 -24.119L132.175 -28.6533L139.023 -34.2858L147.804 -41.305L147.475 -42.9183L137.297 -38.267L129.23 -34.7169L122.855 -32.0777L117.859 -30.2089L114.009 -29.0067L111.126 -28.3945L109.072 -28.3157L107.742 -28.7296L107.053 -29.6068L106.937 -30.9267L107.341 -32.6749L108.219 -34.8413L109.531 -37.4178L111.239 -40.3967L113.307 -43.7685L115.694 -47.5205L118.358 -51.6342L121.251 -56.0842L124.319 -60.8363L127.5 -65.8456L130.724 -71.0565L133.918 -76.4019L137.001 -81.8037L139.889 -87.1747L142.499 -92.4212L144.754 -97.446L146.581 -102.153L147.921 -106.453L148.728 -110.266L148.977 -113.529L148.658 -116.196L147.783 -118.243L146.383 -119.668L144.503 -120.492L142.201 -120.752L139.546 -120.506L136.611 -119.82L133.471 -118.774L130.199 -117.448L126.864 -115.925L123.528 -114.288L120.245 -112.613L117.062 -110.97L114.016 -109.425L111.137 -108.032L108.448 -106.842L105.963 -105.896L103.692 -105.229L101.64 -104.869L99.8066 -104.84L98.1883 -105.16L96.7782 -105.842L95.5667 -106.895L94.5416 -108.32L93.6883 -110.119L92.9899 -112.282L92.427 -114.798L91.9779 -117.645L91.6183 -120.796L91.3216 -124.213L91.0584 -127.848L90.7973 -131.644L90.5049 -135.53L90.1464 -139.426L89.6866 -143.241L89.091 -146.874L88.3271 -150.219L87.3657 -153.168L86.183 -155.614L84.7618 -157.456L83.093 -158.608L81.1764 -159L79.0214 -158.587L76.6465 -157.348L74.0791 -155.291L71.3532 -152.454L68.5083 -148.9L65.5867 -144.714L62.6316 -140.001L59.6846 -134.877L56.7839 -129.464L53.9631 -123.886L51.2499 -118.261L48.666 -112.701L46.2268 -107.306L43.9418 -102.163L41.8152 -97.3509L39.8465 -92.9328L38.0317 -88.9642L36.3634 -85.4919L34.8321 -82.5576L33.4262 -80.2L32.133 -78.4581L30.9387 -77.374L29.8285 -76.9973L28.7869 -77.3879L27.797 -78.622L26.8404 -80.7969L25.8968 -84.0392L24.9424 -88.5141L23.949 -94.439L22.8818 -102.102L21.696 -111.887L20.3331 -124.313L18.8748 -117.456L17.6128 -106.484L16.4952 -97.8625L15.4714 -91.1484L14.5023 -86.0116L13.5567 -82.2038L12.6091 -79.5368L11.6375 -77.8669L10.6227 -77.0839L9.54733 -77.1024L8.39513 -77.8552L7.15097 -79.2884L5.80058 -81.3569L4.33068 -84.0204L2.72913 -87.2406L0.985392 -90.9775L-0.909008 -95.1872L-2.95982 -99.8187L-5.16938 -104.812L-7.53577 -110.097L-10.0521 -115.59L-12.7058 -121.197L-15.4783 -126.812L-18.3447 -132.319L-21.2741 -137.597L-24.2303 -142.521L-27.1733 -146.973L-30.0602 -150.841L-32.8481 -154.03L-35.4959 -156.465L-37.9666 -158.098L-40.2295 -158.905L-42.2618 -158.893L-44.0496 -158.097L-45.5885 -156.575L-46.8834 -154.406L-47.9479 -151.684L-48.8029 -148.515L-49.475 -145.006L-49.9955 -141.265L-50.398 -137.396L-50.7176 -133.494L-50.9894 -129.646L-51.2475 -125.926L-51.5244 -122.398L-51.8505 -119.115L-52.2536 -116.118L-52.7593 -113.441L-53.3904 -111.107L-54.1675 -109.133L-55.1085 -107.529L-56.2293 -106.299L-57.5431 -105.441L-59.0608 -104.949L-60.7908 -104.813L-62.7381 -105.017L-64.9047 -105.54L-67.2881 -106.357L-69.8814 -107.436L-72.6721 -108.737L-75.6414 -110.216L-78.7631 -111.82L-82.0036 -113.488L-85.3206 -115.152L-88.6636 -116.74L-91.974 -118.17L-95.1858 -119.36L-98.228 -120.229L-101.026 -120.694L-103.505 -120.684L-105.595 -120.135L-107.231 -119.001L-108.362 -117.252L-108.949 -114.879L-108.972 -111.897L-108.429 -108.34L-107.339 -104.264L-105.738 -99.7404L-103.68 -94.8556L-101.23 -89.7029L-98.4638 -84.3794L-95.4638 -78.9809L-92.313 -73.5983L-89.0934 -68.3141L-85.8827 -63.2008L-82.7529 -58.3196L-79.7691 -53.7203L-76.989 -49.4422L-74.4638 -45.5148L-72.2386 -41.9594L-70.354 -38.7915L-68.8481 -36.0217L-67.7579 -33.6584L-67.1221 -31.7092L-66.9834 -30.1832L-67.3914 -29.0924L-68.4062 -28.4541L-70.1022 -28.2931L-72.574 -28.6445L-75.9427 -29.5566L-80.3655 -31.0958L-86.0481 -33.3519L-93.2622 -36.4465L-102.371 -40.544L-112.872 -45.2574L-103.005 -37.4454L-95.285 -31.1918L-89.2966 -26.1635L-84.7325 -22.1134L-81.3635 -18.8555L-79.0181 -16.2478L-77.5669 -14.1805L-76.9123 -12.5675L-76.9804 -11.3402L-77.715 -10.4432L-79.0731 -9.83029L-81.0205 -9.46211L-83.5291 -9.30404L-86.5734 -9.32438L-90.128 -9.49306L-94.1649 -9.78042L-98.6507 -10.1564L-103.545 -10.5899L-108.797 -11.0484L-114.345 -11.498L-120.116 -11.9033L-126.022 -12.2285L-131.965 -12.4379L-137.836 -12.4972L-143.52 -12.3752L-148.897 -12.0448L-153.852 -11.4851L-158.275 -10.6823L-162.074 -9.63081L-165.172 -8.33376L-167.517 -6.80284L-169.085 -5.05751L-169.876 -3.12385L-169.918 -1.03289L-169.263 1.18131L-167.983 3.48364L-166.165 5.83974L-163.907 8.2176L-161.311 10.5888L-158.479 12.9295L-155.512 15.2204L-152.502 17.4476L-149.535 19.6018L-146.685 21.6783L-144.017 23.6762L-141.587 25.5983L-139.44 27.4501L-137.613 29.2393L-136.134 30.9757L-135.026 32.6702L-134.304 34.3348L-133.977 35.9823L-133.957 36.5055Z" stroke="url(#paint1_linear_1_61)" stroke-width="6"/>
</g>
<defs>
<linearGradient id="paint0_linear_1_61" x1="20.45" y1="-264" x2="20.45" y2="337" gradientUnits="userSpaceOnUse">
<stop stop-color="white"/>
<stop offset="1" stop-color="#858585" stop-opacity="0"/>
</linearGradient>
<linearGradient id="paint1_linear_1_61" x1="19.9821" y1="-159" x2="19.9821" y2="232" gradientUnits="userSpaceOnUse">
<stop stop-color="white"/>
<stop offset="1" stop-color="#858585" stop-opacity="0"/>
</linearGradient>
</defs>
</svg>
