<svg width="257" height="36" viewBox="0 0 257 36" fill="none" xmlns="http://www.w3.org/2000/svg">
<path d="M76.8076 19.5532H69.4922C69.2434 16.6656 67.4423 14.8798 64.7524 14.8798C61.3435 14.8798 59.2936 17.8701 59.2936 22.6879C59.2936 27.5058 61.3435 30.4922 64.7524 30.4922C67.4582 30.4922 69.2592 28.5165 69.4609 25.3361H76.8235C76.2708 31.5522 71.6649 35.6976 64.8 35.6976C57.0378 35.6976 51.9782 30.5872 51.9782 22.6879C51.9782 14.7886 57.0224 9.67818 64.7841 9.67818C71.649 9.67818 76.239 13.8198 76.8076 19.5532ZM86.0781 13.6488C87.9109 11.1182 90.4235 9.872 93.1368 9.872C98.8449 9.872 102.502 13.2422 102.502 19.8914V34.9263H95.4911V20.5678C95.4911 16.8556 93.7848 15.1724 91.0318 15.1724C88.1285 15.1724 86.0231 17.3381 86.0231 21.8178V34.9263H79.0036V0.620085H86.0151L85.9717 13.6488H86.0781ZM122.335 27.4981H129.5C128.497 31.9779 124.089 35.6899 117.327 35.6899C109.312 35.6899 104.655 30.2908 104.655 22.4865C104.655 15.2673 109.312 9.67061 117.295 9.67061C123.153 9.67061 127.462 12.8508 129.062 17.8131C129.615 19.5001 129.852 21.3771 129.852 24.0786H111.567C111.769 29.1357 114.333 30.9177 117.327 30.9177C120.131 30.9177 121.983 29.4815 122.335 27.4981ZM111.718 19.8344H122.848C122.398 16.126 120.084 14.4391 117.291 14.4391C114.499 14.4391 112.267 16.1337 111.718 19.842V19.8344ZM153.216 17.9574H146.501C146.501 15.4535 144.996 14.3935 142.492 14.3935C140.24 14.3935 139.036 15.2598 139.036 16.6732C139.036 18.4058 140.639 18.839 144.494 19.804C149.053 20.9439 154.061 22.0837 154.061 28.0415C154.061 32.6198 149.756 35.7052 142.843 35.7052C135.781 35.7052 131.424 32.9087 131.424 26.9662H138.534C138.534 29.4244 140.086 30.8227 142.994 30.8227C145.446 30.8227 146.699 29.907 146.699 28.4593C146.699 26.3392 144.795 25.906 140.841 24.8953C136.582 23.8354 132.024 22.8739 132.024 17.1861C132.024 12.8014 136.231 9.67061 142.543 9.67061C149.207 9.67823 153.216 12.5203 153.216 17.9651V17.9574ZM170.501 29.6183V34.7742C169.293 35.0912 168.045 35.2523 166.792 35.253C160.934 35.253 158.379 32.9733 158.379 27.3044V15.4612H154.271V10.4495H158.398V4.08908H165.39V10.4495H170.248V15.4612H165.39V26.0998C165.39 28.7975 166.295 29.8577 168.696 29.8577C169.306 29.8651 169.914 29.7871 170.501 29.6257V29.6183ZM189.485 10.3431V16.1754C188.76 16.0288 188.022 15.9474 187.28 15.9323C182.971 15.9323 180.669 18.535 180.669 23.3527V34.9186H173.657V10.4495H180.123V13.9185H180.226C181.928 11.2588 184.176 10.0619 187.186 10.0619C187.962 10.0651 188.734 10.1621 189.485 10.3507V10.3431ZM213.027 19.3557V28.2199C213.027 31.3054 213.276 33.2811 213.726 34.9186H207.406C207.157 33.8425 207.04 32.742 207.058 31.6397H206.983C205.083 34.2423 202.243 35.4962 198.72 35.4962C193.308 35.4962 190.054 32.3158 190.054 28.0757C190.054 24.0786 192.558 21.377 199.929 20.2713C201.832 19.9826 204.668 19.6939 206.292 19.5951V18.7287C206.292 15.6435 204.59 14.3935 202.133 14.3935C199.529 14.3935 198.029 15.7879 197.926 18.1019H191.084C191.337 13.4284 194.841 9.67061 202.105 9.67061C209.369 9.67061 213.027 12.9534 213.027 19.3633V19.3557ZM206.264 23.6986C204.759 23.7935 202.658 23.9872 201.153 24.2266C198.25 24.7093 197.049 25.625 197.049 27.6007C197.049 29.432 198.348 30.6859 200.805 30.6859C202.255 30.6859 203.808 30.2528 204.81 29.2878C205.996 28.1479 206.264 26.8294 206.264 24.6143V23.6986ZM230.131 29.6257V34.7818C228.921 35.0986 227.676 35.2595 226.426 35.2606C220.563 35.2606 218.008 32.9809 218.008 27.3118V15.4612H213.904V10.4495H218.008V4.08908H225.023V10.4495H229.892V15.4612H225.034V26.0998C225.034 28.7975 225.935 29.8577 228.341 29.8577C228.946 29.864 229.548 29.7859 230.131 29.6257ZM249.249 27.4981H256.409C255.409 31.9779 251.001 35.6899 244.239 35.6899C236.226 35.6899 231.564 30.2908 231.564 22.4865C231.564 15.2673 236.226 9.67061 244.203 9.67061C250.066 9.67061 254.371 12.8508 255.974 17.8131C256.528 19.5001 256.765 21.3771 256.765 24.0786H238.469C238.669 29.1357 241.233 30.9177 244.23 30.9177C247.037 30.9177 248.888 29.4815 249.249 27.4981ZM238.627 19.8344H249.749C249.298 16.126 246.985 14.4391 244.188 14.4391C241.391 14.4391 239.172 16.1337 238.618 19.842L238.627 19.8344ZM49.9518 10.0619C46.9458 10.0619 44.6944 11.2664 42.9919 13.9185H42.8892V10.4495H36.427V16.6922C35.5878 17.186 34.7096 17.6154 33.8004 17.9764C34.5903 11.0308 33.3105 5.19473 27.6977 2.1247C18.4507 -2.9363 6.74301 1.28499 2.02278 12.2239C-1.6744 20.7995 -1.21225 33.5356 11.1946 35.671C21.35 37.415 28.4955 31.936 31.0947 26.0809C32.928 25.654 34.713 25.0533 36.4232 24.2874V34.9263H43.4541V23.3604C43.4349 22.2532 43.5867 21.1495 43.9043 20.0852C44.0066 19.7457 44.1388 19.4152 44.2993 19.0973C45.3264 17.0266 47.2738 15.9399 50.0545 15.9399C50.7942 15.9547 51.5307 16.0361 52.2545 16.1831V10.3507C51.5027 10.1612 50.729 10.0642 49.9518 10.0619ZM14.876 29.7018C10.1163 29.7247 7.51325 26.4721 7.51325 21.2707C7.56593 19.4276 7.866 17.5988 8.40595 15.8297C9.35397 18.4324 11.8266 22.023 15.0261 24.0406C17.1986 25.4083 19.6476 26.4076 22.0373 26.6281C20.2717 28.3113 18.0479 29.6905 14.876 29.7018ZM25.7938 20.0814C25.1728 20.1287 24.5487 20.1211 23.9294 20.0586C17.3487 19.5419 14.6548 14.6405 14.5916 11.3196C14.5442 8.70173 16.3731 6.38021 19.1499 6.38021H19.1815C23.9413 6.38021 26.6272 9.46546 26.5956 14.7658C26.6085 16.5665 26.3382 18.3585 25.7938 20.0814Z" fill="#A6A6A6"/>
</svg>
