<svg width="229" height="49" viewBox="0 0 229 49" fill="none" xmlns="http://www.w3.org/2000/svg">
<path fill-rule="evenodd" clip-rule="evenodd" d="M0 24.5938C0 33.7751 5.69192 42.5852 13.1657 46.3963C15.4919 47.5595 18.9566 48.9948 22.347 48.9948V30.6074C21.3571 30.8549 20.2187 32.3893 19.501 33.1317C17.9419 34.6908 17.6944 35.5569 15.7146 35.5569C14.5268 35.5569 13.6606 34.5423 13.6606 33.0822C13.6606 31.2014 17.6202 28.5781 18.6101 27.0685C14.0813 27.0685 10.1465 28.1079 10.1465 24.3958C10.1465 23.6781 10.5424 23.0347 10.9631 22.7377C11.9035 22.0448 16.952 22.317 18.6101 22.317C18.4121 21.5499 16.6303 20.0155 15.9869 19.3721C15.1949 18.6049 13.6606 17.4665 13.6606 16.1054C13.6606 14.3731 14.601 13.6307 16.1354 13.6307C17.546 13.6307 19.4268 16.0064 20.7384 17.2933C21.2581 17.8377 21.5798 18.3822 22.347 18.6049C22.347 15.7095 21.5303 12.3933 24.8217 12.3933C25.9848 12.3933 26.8015 13.2842 27.0242 14.3236C27.247 15.3135 27.0985 17.4913 27.0985 18.6049C29.0783 17.2685 30.8354 13.6307 33.5081 13.6307C35.1414 13.6307 35.5869 14.967 35.5869 16.3281C35.5869 17.4913 33.9535 18.6792 33.2606 19.3721L31.8995 20.7084C31.3798 21.2281 30.8106 21.5499 30.6126 22.317C31.949 22.317 37.4182 21.9953 38.3338 22.6882C39.9424 23.9009 39.6702 27.0191 36.4035 27.0933C34.498 27.118 32.5429 27.0685 30.6126 27.0685C32.6172 30.063 35.5869 30.4837 35.5869 33.7009C35.5869 35.5074 33.9535 35.5569 32.8894 35.5569C31.2808 35.5569 29.0288 31.8943 27.0985 30.6074V48.9948C30.4641 48.9948 33.5823 47.609 35.9333 46.4458C43.4813 42.709 49.2227 34.0721 49.2227 25.6332C49.2227 19.1989 47.5399 13.0862 43.2833 8.60693C41.551 6.80037 41.0066 6.03319 38.5071 4.30087C22.446 -6.86024 0 5.04329 0 24.5938ZM173.554 29.766V23.1584C173.554 20.263 181.003 20.263 181.003 23.1584V29.766C181.003 30.5579 180.657 30.9044 180.162 31.2261C178.504 32.2903 173.554 32.315 173.554 29.766ZM181.003 18.1842C179.048 18.0357 179.815 17.7635 176.449 17.7635C173.604 17.7635 170.04 19.3721 170.04 22.1191V30.8054C170.04 32.4635 171.104 33.3297 172.193 34.0226C174.321 35.4332 178.157 35.4084 180.607 34.7403C182.389 34.2453 180.013 35.1362 183.478 35.1362C183.948 35.1362 184.517 34.5918 184.517 34.1216V10.9332C184.517 9.67107 181.572 9.29986 181.077 11.0322C180.879 11.7499 181.003 12.6655 181.003 13.4327V18.1842ZM110.671 29.766V23.1584C110.671 22.3418 110.992 21.9953 111.487 21.6983C112.923 20.7827 115.868 20.7827 117.278 21.6983C117.773 21.9953 118.12 22.3418 118.12 23.1584V29.766C118.12 32.315 113.145 32.2903 111.487 31.2261C110.992 30.9044 110.671 30.5579 110.671 29.766ZM118.12 18.1842C116.189 18.0357 116.932 17.7635 113.566 17.7635C110.72 17.7635 107.157 19.3721 107.157 22.1191V30.8054C107.157 32.4635 108.221 33.3297 109.31 34.0226C111.438 35.4332 115.274 35.4084 117.724 34.7403C119.506 34.2453 117.13 35.1362 120.594 35.1362C121.065 35.1362 121.634 34.5918 121.634 34.1216V10.9332C121.634 9.67107 118.689 9.29986 118.194 11.0322C117.996 11.7499 118.12 12.6655 118.12 13.4327V18.1842ZM127.623 29.766V23.1584C127.623 22.3418 127.944 21.9953 128.439 21.6983C129.875 20.7827 132.82 20.7827 134.255 21.6983C134.75 21.9953 135.072 22.3418 135.072 23.1584V29.766C135.072 32.315 130.122 32.2903 128.439 31.2261C127.944 30.9044 127.623 30.5579 127.623 29.766ZM124.109 10.9332V34.1216C124.109 35.359 125.767 35.1362 126.385 35.1362C126.88 35.1362 127.004 34.8145 127.425 34.5175C129.726 35.6312 134.23 35.2847 136.284 34.0721C137.101 33.6019 138.586 32.216 138.586 31.0034V22.1191C138.586 19.3968 134.997 17.7635 132.176 17.7635C128.811 17.7635 129.553 18.0357 127.623 18.1842V13.4327C127.623 10.265 127.672 9.91855 125.148 9.91855C124.653 9.91855 124.109 10.463 124.109 10.9332ZM93.6939 23.1584C93.6939 20.263 101.143 20.263 101.143 23.1584V23.9751H93.6939V23.1584ZM90.1798 22.1191V30.8054C90.1798 36.918 104.657 36.2251 104.657 31.0034C104.657 28.4544 104.806 28.3307 102.38 28.3307C100.747 28.3307 101.762 31.8448 98.6682 31.8448C93.4465 31.8448 93.6939 31.3499 93.6939 27.0685H103.642C105.127 27.0685 104.657 24.2226 104.657 22.1191C104.657 19.3968 101.069 17.7635 98.2475 17.7635H96.5894C93.7434 17.7635 90.1798 19.3721 90.1798 22.1191ZM76.7419 23.1584C76.7419 20.6095 81.6914 20.6342 83.3742 21.6983C84.3146 22.2923 84.1909 22.8615 84.1909 23.9751H76.7419V23.1584ZM73.2278 22.1191V30.8054C73.2278 36.918 87.705 36.2251 87.705 31.0034C87.705 28.4544 87.8535 28.3307 85.4283 28.3307C83.7949 28.3307 84.8096 31.8448 81.7162 31.8448C76.4697 31.8448 76.7419 31.3499 76.7419 27.0685H86.6657C88.1752 27.0685 87.705 24.2226 87.705 22.1191C87.705 19.3968 84.1167 17.7635 81.2955 17.7635H79.6374C76.7914 17.7635 73.2278 19.3721 73.2278 22.1191ZM190.506 23.1584C190.506 20.263 197.955 20.263 197.955 23.1584V23.9751H190.506V23.1584ZM186.992 22.1191V30.8054C186.992 32.4635 188.081 33.3297 189.145 34.0226C192.634 36.3241 201.469 35.062 201.469 31.0034C201.469 28.4544 201.618 28.3307 199.192 28.3307C198.079 28.3307 198.104 29.7165 197.807 30.459C197.039 32.414 190.506 32.612 190.506 29.766V27.0685H200.43C201.939 27.0685 201.469 24.2226 201.469 22.1191C201.469 19.3968 197.881 17.7635 195.06 17.7635H193.402C190.556 17.7635 186.992 19.3721 186.992 22.1191ZM213.67 21.6983V23.1584C213.67 29.8155 224.633 26.7716 224.633 29.766C224.633 32.2408 221.861 32.0428 219.881 32.0428C215.551 32.0428 218.644 27.91 215.328 27.91C213.323 27.91 213.67 29.5185 213.67 31.2261C213.67 33.4534 217.159 35.359 220.079 35.359C222.455 35.359 224.014 35.4827 226.142 34.1463C228.147 32.909 228.147 31.4983 228.147 29.568C228.147 23.5544 217.184 26.1776 217.184 23.3564C217.184 20.5847 219.461 20.8817 222.158 20.8817C222.95 20.8817 224.262 21.5994 224.509 22.2428C225.029 23.6039 224.286 24.5938 226.712 24.5938C228.444 24.5938 228.147 23.3069 228.147 22.1191C228.147 19.4463 224.88 17.5655 222.158 17.5655C219.956 17.5655 217.704 17.4418 215.823 18.6792C214.957 19.2483 213.67 20.4115 213.67 21.6983ZM56.053 21.6983V23.1584C56.053 29.8155 67.0162 26.7716 67.0162 29.766C67.0162 32.2408 64.2444 32.0428 62.2646 32.0428C57.9338 32.0428 61.0273 27.91 57.7111 27.91C55.7066 27.91 56.053 29.5185 56.053 31.2261C56.053 33.4534 59.5424 35.359 62.4626 35.359C64.8384 35.359 66.3975 35.4827 68.5258 34.1463C70.5303 32.909 70.5303 31.4983 70.5303 29.568C70.5303 23.5544 59.5672 26.1776 59.5672 23.3564C59.5672 20.5847 61.8439 20.8817 64.5414 20.8817C67.0904 20.8817 67.0657 23.4554 67.2141 23.7771C67.8823 25.163 70.5303 24.6928 70.5303 23.5544V22.1191C70.5303 19.4463 67.2636 17.5655 64.5414 17.5655C62.3389 17.5655 60.0869 17.4418 58.2061 18.6792C57.3399 19.2483 56.053 20.4115 56.053 21.6983ZM141.283 18.8029V30.8054C141.283 33.5524 144.847 35.1362 147.693 35.1362H149.351C152.172 35.1362 155.761 33.5276 155.761 30.8054V18.8029C155.761 17.5408 152.964 17.1943 152.37 18.7286C152.147 19.2978 152.246 20.164 152.246 20.8817V29.766C152.024 32.4387 147.297 32.1913 145.738 31.3004C144.204 30.4095 144.797 28.4049 144.797 25.4352L144.723 18.8771C144.228 17.1448 141.283 17.516 141.283 18.8029ZM164.026 10.9332V34.1216C164.026 35.5074 167.54 35.8292 167.54 33.5029V11.5766C167.54 9.22562 164.026 9.54734 164.026 10.9332ZM203.944 18.8029V34.1216C203.944 35.4084 207.161 35.8786 207.458 33.6761V25.2125C207.458 22.7377 207.211 21.9953 209.116 21.2776C210.799 20.6342 212.853 21.7231 212.853 19.2236C212.853 16.9221 209.314 17.7635 208.003 18.1347C205.751 18.7534 208.423 17.7635 204.983 17.7635C204.513 17.7635 203.944 18.3327 203.944 18.8029ZM158.235 18.8029V34.1216C158.235 35.5074 161.749 35.8292 161.749 33.5029V19.4216C161.749 17.0953 158.235 17.417 158.235 18.8029ZM158.235 10.9332C158.235 13.7049 158.062 13.8286 160.512 13.8286C162.17 13.8286 162.17 9.91855 160.512 9.91855C159.893 9.91855 158.235 9.69582 158.235 10.9332Z" fill="#A6A6A6"/>
</svg>
